<svg xmlns="http://www.w3.org/2000/svg" xmlns:xlink="http://www.w3.org/1999/xlink" contentStyleType="text/css" height="617px" preserveAspectRatio="none" style="width:784px;height:617px;background:#FFFFFF;" version="1.1" viewBox="0 0 784 617" width="784px" zoomAndPan="magnify"><defs/><g><!--class project--><g id="elem_project"><rect codeLine="3" fill="#F1F1F1" height="141.1055" id="project" rx="2.5" ry="2.5" style="stroke:#181818;stroke-width:0.5;" width="347.3984" x="239" y="7"/><ellipse cx="387.439" cy="23" fill="#ADD1B2" rx="11" ry="11" style="stroke:#181818;stroke-width:1.0;"/><path d="M386.2983,23.7969 L386.2983,26.2969 L390.6265,26.2969 L390.6265,25.375 Q390.6265,24.7656 390.8608,24.5 Q391.1108,24.2344 391.4858,24.2344 Q391.8608,24.2344 392.0952,24.5 Q392.3296,24.7656 392.3296,25.375 L392.3296,28 L384.3296,28 Q383.7046,28 383.439,27.7656 Q383.189,27.5313 383.189,27.1406 Q383.189,26.7656 383.4546,26.5313 Q383.7202,26.2969 384.3296,26.2969 L384.5952,26.2969 L384.5952,19.6406 L384.3296,19.6406 Q383.7046,19.6406 383.439,19.4063 Q383.189,19.1719 383.189,18.7813 Q383.189,18.4063 383.439,18.1719 Q383.7046,17.9375 384.3296,17.9375 L391.9546,17.9375 L391.9546,20.5313 Q391.9546,21.1406 391.7202,21.4063 Q391.5015,21.6563 391.1108,21.6563 Q390.7358,21.6563 390.5015,21.4063 Q390.2671,21.1406 390.2671,20.5313 L390.2671,19.6406 L386.2983,19.6406 L386.2983,22.0938 L387.7827,22.0938 Q387.7827,21.4375 387.9077,21.25 Q388.1733,20.8438 388.6421,20.8438 Q389.0171,20.8438 389.2515,21.1094 Q389.4858,21.3594 389.4858,21.9688 L389.4858,23.9375 Q389.4858,24.4844 389.3608,24.6719 Q389.0952,25.0625 388.6421,25.0625 Q388.1733,25.0625 387.9077,24.6563 Q387.7827,24.4688 387.7827,23.7969 L386.2983,23.7969 Z " fill="#000000"/><text fill="#000000" font-family="sans-serif" font-size="14" lengthAdjust="spacing" textLength="42.0205" x="407.939" y="28.7969">project</text><line style="stroke:#181818;stroke-width:0.5;" x1="240" x2="585.3984" y1="39" y2="39"/><ellipse cx="250" cy="53.8105" fill="#000000" rx="3" ry="3" style="stroke:#000000;stroke-width:1.0;"/><text fill="#000000" font-family="sans-serif" font-size="14" lengthAdjust="spacing" textLength="131.5508" x="259" y="58.1074">id : uuid &#171;generated&#187;</text><line style="stroke:#181818;stroke-width:1.0;" x1="240" x2="585.3984" y1="65.6211" y2="65.6211"/><ellipse cx="250" cy="80.4316" fill="#000000" rx="3" ry="3" style="stroke:#000000;stroke-width:1.0;"/><text fill="#000000" font-family="sans-serif" font-size="14" lengthAdjust="spacing" textLength="186.751" x="259" y="84.7285">name : character varying(255)</text><ellipse cx="250" cy="99.0527" fill="#000000" rx="3" ry="3" style="stroke:#000000;stroke-width:1.0;"/><text fill="#000000" font-family="sans-serif" font-size="14" lengthAdjust="spacing" textLength="189.8613" x="259" y="103.3496">owner : character varying(255)</text><ellipse cx="250" cy="117.6738" fill="#000000" rx="3" ry="3" style="stroke:#000000;stroke-width:1.0;"/><text fill="#000000" font-family="sans-serif" font-size="14" lengthAdjust="spacing" textLength="287.916" x="259" y="121.9707">created_date : timestamp(6) without time zone</text><text fill="#000000" font-family="sans-serif" font-size="14" lengthAdjust="spacing" textLength="321.3984" x="259" y="140.5918">last_updated_date : timestamp(6) without time zone</text></g><!--class scope--><g id="elem_scope"><rect codeLine="12" fill="#F1F1F1" height="159.7266" id="scope" rx="2.5" ry="2.5" style="stroke:#181818;stroke-width:0.5;" width="313.916" x="255.5" y="208"/><ellipse cx="389.5288" cy="224" fill="#ADD1B2" rx="11" ry="11" style="stroke:#181818;stroke-width:1.0;"/><path d="M388.3882,224.7969 L388.3882,227.2969 L392.7163,227.2969 L392.7163,226.375 Q392.7163,225.7656 392.9507,225.5 Q393.2007,225.2344 393.5757,225.2344 Q393.9507,225.2344 394.1851,225.5 Q394.4194,225.7656 394.4194,226.375 L394.4194,229 L386.4194,229 Q385.7944,229 385.5288,228.7656 Q385.2788,228.5313 385.2788,228.1406 Q385.2788,227.7656 385.5444,227.5313 Q385.8101,227.2969 386.4194,227.2969 L386.6851,227.2969 L386.6851,220.6406 L386.4194,220.6406 Q385.7944,220.6406 385.5288,220.4063 Q385.2788,220.1719 385.2788,219.7813 Q385.2788,219.4063 385.5288,219.1719 Q385.7944,218.9375 386.4194,218.9375 L394.0444,218.9375 L394.0444,221.5313 Q394.0444,222.1406 393.8101,222.4063 Q393.5913,222.6563 393.2007,222.6563 Q392.8257,222.6563 392.5913,222.4063 Q392.3569,222.1406 392.3569,221.5313 L392.3569,220.6406 L388.3882,220.6406 L388.3882,223.0938 L389.8726,223.0938 Q389.8726,222.4375 389.9976,222.25 Q390.2632,221.8438 390.7319,221.8438 Q391.1069,221.8438 391.3413,222.1094 Q391.5757,222.3594 391.5757,222.9688 L391.5757,224.9375 Q391.5757,225.4844 391.4507,225.6719 Q391.1851,226.0625 390.7319,226.0625 Q390.2632,226.0625 389.9976,225.6563 Q389.8726,225.4688 389.8726,224.7969 L388.3882,224.7969 Z " fill="#000000"/><text fill="#000000" font-family="sans-serif" font-size="14" lengthAdjust="spacing" textLength="37.3584" x="410.0288" y="229.7969">scope</text><line style="stroke:#181818;stroke-width:0.5;" x1="256.5" x2="568.416" y1="240" y2="240"/><ellipse cx="266.5" cy="254.8105" fill="#000000" rx="3" ry="3" style="stroke:#000000;stroke-width:1.0;"/><text fill="#000000" font-family="sans-serif" font-size="14" lengthAdjust="spacing" textLength="131.5508" x="275.5" y="259.1074">id : uuid &#171;generated&#187;</text><line style="stroke:#181818;stroke-width:1.0;" x1="256.5" x2="568.416" y1="266.6211" y2="266.6211"/><ellipse cx="266.5" cy="281.4316" fill="#000000" rx="3" ry="3" style="stroke:#000000;stroke-width:1.0;"/><text fill="#000000" font-family="sans-serif" font-size="14" lengthAdjust="spacing" textLength="173.5166" x="275.5" y="285.7285">key : character varying(255)</text><ellipse cx="266.5" cy="300.0527" fill="#000000" rx="3" ry="3" style="stroke:#000000;stroke-width:1.0;"/><text fill="#000000" font-family="sans-serif" font-size="14" lengthAdjust="spacing" textLength="287.916" x="275.5" y="304.3496">created_date : timestamp(6) without time zone</text><ellipse cx="266.5" cy="318.6738" fill="#000000" rx="3" ry="3" style="stroke:#000000;stroke-width:1.0;"/><text fill="#000000" font-family="sans-serif" font-size="14" lengthAdjust="spacing" textLength="109.751" x="275.5" y="322.9707">finished : boolean</text><ellipse cx="266.5" cy="337.2949" fill="#000000" rx="3" ry="3" style="stroke:#000000;stroke-width:1.0;"/><text fill="#000000" font-family="sans-serif" font-size="14" lengthAdjust="spacing" textLength="111.3027" x="275.5" y="341.5918">external : boolean</text><ellipse cx="266.5" cy="355.916" fill="#000000" rx="3" ry="3" style="stroke:#000000;stroke-width:1.0;"/><text fill="#000000" font-family="sans-serif" font-size="14" lengthAdjust="spacing" textLength="136.1924" x="275.5" y="360.2129">project_id : uuid &#171;FK&#187;</text></g><!--class item--><g id="elem_item"><rect codeLine="22" fill="#F1F1F1" height="122.4844" id="item" rx="2.5" ry="2.5" style="stroke:#181818;stroke-width:0.5;" width="215.082" x="305" y="428"/><ellipse cx="395.0669" cy="444" fill="#ADD1B2" rx="11" ry="11" style="stroke:#181818;stroke-width:1.0;"/><path d="M393.9263,444.7969 L393.9263,447.2969 L398.2544,447.2969 L398.2544,446.375 Q398.2544,445.7656 398.4888,445.5 Q398.7388,445.2344 399.1138,445.2344 Q399.4888,445.2344 399.7231,445.5 Q399.9575,445.7656 399.9575,446.375 L399.9575,449 L391.9575,449 Q391.3325,449 391.0669,448.7656 Q390.8169,448.5313 390.8169,448.1406 Q390.8169,447.7656 391.0825,447.5313 Q391.3481,447.2969 391.9575,447.2969 L392.2231,447.2969 L392.2231,440.6406 L391.9575,440.6406 Q391.3325,440.6406 391.0669,440.4063 Q390.8169,440.1719 390.8169,439.7813 Q390.8169,439.4063 391.0669,439.1719 Q391.3325,438.9375 391.9575,438.9375 L399.5825,438.9375 L399.5825,441.5313 Q399.5825,442.1406 399.3481,442.4063 Q399.1294,442.6563 398.7388,442.6563 Q398.3638,442.6563 398.1294,442.4063 Q397.895,442.1406 397.895,441.5313 L397.895,440.6406 L393.9263,440.6406 L393.9263,443.0938 L395.4106,443.0938 Q395.4106,442.4375 395.5356,442.25 Q395.8013,441.8438 396.27,441.8438 Q396.645,441.8438 396.8794,442.1094 Q397.1138,442.3594 397.1138,442.9688 L397.1138,444.9375 Q397.1138,445.4844 396.9888,445.6719 Q396.7231,446.0625 396.27,446.0625 Q395.8013,446.0625 395.5356,445.6563 Q395.4106,445.4688 395.4106,444.7969 L393.9263,444.7969 Z " fill="#000000"/><text fill="#000000" font-family="sans-serif" font-size="14" lengthAdjust="spacing" textLength="26.4482" x="415.5669" y="449.7969">item</text><line style="stroke:#181818;stroke-width:0.5;" x1="306" x2="519.082" y1="460" y2="460"/><ellipse cx="316" cy="474.8105" fill="#000000" rx="3" ry="3" style="stroke:#000000;stroke-width:1.0;"/><text fill="#000000" font-family="sans-serif" font-size="14" lengthAdjust="spacing" textLength="131.5508" x="325" y="479.1074">id : uuid &#171;generated&#187;</text><line style="stroke:#181818;stroke-width:1.0;" x1="306" x2="519.082" y1="486.6211" y2="486.6211"/><ellipse cx="316" cy="501.4316" fill="#000000" rx="3" ry="3" style="stroke:#000000;stroke-width:1.0;"/><text fill="#000000" font-family="sans-serif" font-size="14" lengthAdjust="spacing" textLength="189.082" x="325" y="505.7285">status : character varying(255)</text><text fill="#000000" font-family="sans-serif" font-size="14" lengthAdjust="spacing" textLength="107.3926" x="325" y="524.3496">properties : jsonb</text><ellipse cx="316" cy="538.6738" fill="#000000" rx="3" ry="3" style="stroke:#000000;stroke-width:1.0;"/><text fill="#000000" font-family="sans-serif" font-size="14" lengthAdjust="spacing" textLength="131.5303" x="325" y="542.9707">scope_id : uuid &#171;FK&#187;</text></g><!--class checkpoint--><g id="elem_checkpoint"><rect codeLine="30" fill="#F1F1F1" height="122.4844" id="checkpoint" rx="2.5" ry="2.5" style="stroke:#181818;stroke-width:0.5;" width="157.5508" x="604.5" y="227"/><ellipse cx="645.8791" cy="243" fill="#ADD1B2" rx="11" ry="11" style="stroke:#181818;stroke-width:1.0;"/><path d="M644.7384,243.7969 L644.7384,246.2969 L649.0666,246.2969 L649.0666,245.375 Q649.0666,244.7656 649.3009,244.5 Q649.5509,244.2344 649.9259,244.2344 Q650.3009,244.2344 650.5353,244.5 Q650.7697,244.7656 650.7697,245.375 L650.7697,248 L642.7697,248 Q642.1447,248 641.8791,247.7656 Q641.6291,247.5313 641.6291,247.1406 Q641.6291,246.7656 641.8947,246.5313 Q642.1603,246.2969 642.7697,246.2969 L643.0353,246.2969 L643.0353,239.6406 L642.7697,239.6406 Q642.1447,239.6406 641.8791,239.4063 Q641.6291,239.1719 641.6291,238.7813 Q641.6291,238.4063 641.8791,238.1719 Q642.1447,237.9375 642.7697,237.9375 L650.3947,237.9375 L650.3947,240.5313 Q650.3947,241.1406 650.1603,241.4063 Q649.9416,241.6563 649.5509,241.6563 Q649.1759,241.6563 648.9416,241.4063 Q648.7072,241.1406 648.7072,240.5313 L648.7072,239.6406 L644.7384,239.6406 L644.7384,242.0938 L646.2228,242.0938 Q646.2228,241.4375 646.3478,241.25 Q646.6134,240.8438 647.0822,240.8438 Q647.4572,240.8438 647.6916,241.1094 Q647.9259,241.3594 647.9259,241.9688 L647.9259,243.9375 Q647.9259,244.4844 647.8009,244.6719 Q647.5353,245.0625 647.0822,245.0625 Q646.6134,245.0625 646.3478,244.6563 Q646.2228,244.4688 646.2228,243.7969 L644.7384,243.7969 Z " fill="#000000"/><text fill="#000000" font-family="sans-serif" font-size="14" lengthAdjust="spacing" textLength="66.9307" x="665.7411" y="248.7969">checkpoint</text><line style="stroke:#181818;stroke-width:0.5;" x1="605.5" x2="761.0508" y1="259" y2="259"/><ellipse cx="615.5" cy="273.8105" fill="#000000" rx="3" ry="3" style="stroke:#000000;stroke-width:1.0;"/><text fill="#000000" font-family="sans-serif" font-size="14" lengthAdjust="spacing" textLength="131.5508" x="624.5" y="278.1074">id : uuid &#171;generated&#187;</text><line style="stroke:#181818;stroke-width:1.0;" x1="605.5" x2="761.0508" y1="285.6211" y2="285.6211"/><ellipse cx="615.5" cy="300.4316" fill="#000000" rx="3" ry="3" style="stroke:#000000;stroke-width:1.0;"/><text fill="#000000" font-family="sans-serif" font-size="14" lengthAdjust="spacing" textLength="121.4063" x="624.5" y="304.7285">batch_size : integer</text><ellipse cx="615.5" cy="319.0527" fill="#000000" rx="3" ry="3" style="stroke:#000000;stroke-width:1.0;"/><text fill="#000000" font-family="sans-serif" font-size="14" lengthAdjust="spacing" textLength="124.5303" x="624.5" y="323.3496">total_batches: bigint</text><ellipse cx="615.5" cy="337.6738" fill="#000000" rx="3" ry="3" style="stroke:#000000;stroke-width:1.0;"/><text fill="#000000" font-family="sans-serif" font-size="14" lengthAdjust="spacing" textLength="131.5303" x="624.5" y="341.9707">scope_id : uuid &#171;FK&#187;</text></g><!--class checkpoint_batches--><g id="elem_checkpoint_batches"><rect codeLine="38" fill="#F1F1F1" height="103.8633" id="checkpoint_batches" rx="2.5" ry="2.5" style="stroke:#181818;stroke-width:0.5;" width="187.1025" x="590" y="437"/><ellipse cx="619.1082" cy="453" fill="#ADD1B2" rx="11" ry="11" style="stroke:#181818;stroke-width:1.0;"/><path d="M617.9676,453.7969 L617.9676,456.2969 L622.2957,456.2969 L622.2957,455.375 Q622.2957,454.7656 622.5301,454.5 Q622.7801,454.2344 623.1551,454.2344 Q623.5301,454.2344 623.7645,454.5 Q623.9988,454.7656 623.9988,455.375 L623.9988,458 L615.9988,458 Q615.3738,458 615.1082,457.7656 Q614.8582,457.5313 614.8582,457.1406 Q614.8582,456.7656 615.1238,456.5313 Q615.3895,456.2969 615.9988,456.2969 L616.2645,456.2969 L616.2645,449.6406 L615.9988,449.6406 Q615.3738,449.6406 615.1082,449.4063 Q614.8582,449.1719 614.8582,448.7813 Q614.8582,448.4063 615.1082,448.1719 Q615.3738,447.9375 615.9988,447.9375 L623.6238,447.9375 L623.6238,450.5313 Q623.6238,451.1406 623.3895,451.4063 Q623.1707,451.6563 622.7801,451.6563 Q622.4051,451.6563 622.1707,451.4063 Q621.9363,451.1406 621.9363,450.5313 L621.9363,449.6406 L617.9676,449.6406 L617.9676,452.0938 L619.452,452.0938 Q619.452,451.4375 619.577,451.25 Q619.8426,450.8438 620.3113,450.8438 Q620.6863,450.8438 620.9207,451.1094 Q621.1551,451.3594 621.1551,451.9688 L621.1551,453.9375 Q621.1551,454.4844 621.0301,454.6719 Q620.7645,455.0625 620.3113,455.0625 Q619.8426,455.0625 619.577,454.6563 Q619.452,454.4688 619.452,453.7969 L617.9676,453.7969 Z " fill="#000000"/><text fill="#000000" font-family="sans-serif" font-size="14" lengthAdjust="spacing" textLength="123.751" x="636.2434" y="458.7969">checkpoint_batches</text><line style="stroke:#181818;stroke-width:0.5;" x1="591" x2="776.1025" y1="469" y2="469"/><ellipse cx="601" cy="483.8105" fill="#000000" rx="3" ry="3" style="stroke:#000000;stroke-width:1.0;"/><text fill="#000000" font-family="sans-serif" font-size="14" lengthAdjust="spacing" textLength="131.5508" x="610" y="488.1074">id : uuid &#171;generated&#187;</text><line style="stroke:#181818;stroke-width:1.0;" x1="591" x2="776.1025" y1="495.6211" y2="495.6211"/><ellipse cx="601" cy="510.4316" fill="#000000" rx="3" ry="3" style="stroke:#000000;stroke-width:1.0;"/><text fill="#000000" font-family="sans-serif" font-size="14" lengthAdjust="spacing" textLength="120.6406" x="610" y="514.7285">batch_index : bigint</text><ellipse cx="601" cy="529.0527" fill="#000000" rx="3" ry="3" style="stroke:#000000;stroke-width:1.0;"/><text fill="#000000" font-family="sans-serif" font-size="14" lengthAdjust="spacing" textLength="161.1025" x="610" y="533.3496">checkpoint_id : uuid &#171;FK&#187;</text></g><!--class host--><g id="elem_host"><rect codeLine="45" fill="#F1F1F1" height="103.8633" id="host" rx="2.5" ry="2.5" style="stroke:#181818;stroke-width:0.5;" width="212.751" x="7" y="236"/><ellipse cx="95.8945" cy="252" fill="#ADD1B2" rx="11" ry="11" style="stroke:#181818;stroke-width:1.0;"/><path d="M94.7539,252.7969 L94.7539,255.2969 L99.082,255.2969 L99.082,254.375 Q99.082,253.7656 99.3164,253.5 Q99.5664,253.2344 99.9414,253.2344 Q100.3164,253.2344 100.5508,253.5 Q100.7852,253.7656 100.7852,254.375 L100.7852,257 L92.7852,257 Q92.1602,257 91.8945,256.7656 Q91.6445,256.5313 91.6445,256.1406 Q91.6445,255.7656 91.9102,255.5313 Q92.1758,255.2969 92.7852,255.2969 L93.0508,255.2969 L93.0508,248.6406 L92.7852,248.6406 Q92.1602,248.6406 91.8945,248.4063 Q91.6445,248.1719 91.6445,247.7813 Q91.6445,247.4063 91.8945,247.1719 Q92.1602,246.9375 92.7852,246.9375 L100.4102,246.9375 L100.4102,249.5313 Q100.4102,250.1406 100.1758,250.4063 Q99.957,250.6563 99.5664,250.6563 Q99.1914,250.6563 98.957,250.4063 Q98.7227,250.1406 98.7227,249.5313 L98.7227,248.6406 L94.7539,248.6406 L94.7539,251.0938 L96.2383,251.0938 Q96.2383,250.4375 96.3633,250.25 Q96.6289,249.8438 97.0977,249.8438 Q97.4727,249.8438 97.707,250.1094 Q97.9414,250.3594 97.9414,250.9688 L97.9414,252.9375 Q97.9414,253.4844 97.8164,253.6719 Q97.5508,254.0625 97.0977,254.0625 Q96.6289,254.0625 96.3633,253.6563 Q96.2383,253.4688 96.2383,252.7969 L94.7539,252.7969 Z " fill="#000000"/><text fill="#000000" font-family="sans-serif" font-size="14" lengthAdjust="spacing" textLength="26.4619" x="116.3945" y="257.7969">host</text><line style="stroke:#181818;stroke-width:0.5;" x1="8" x2="218.751" y1="268" y2="268"/><ellipse cx="18" cy="282.8105" fill="#000000" rx="3" ry="3" style="stroke:#000000;stroke-width:1.0;"/><text fill="#000000" font-family="sans-serif" font-size="14" lengthAdjust="spacing" textLength="131.5508" x="27" y="287.1074">id : uuid &#171;generated&#187;</text><line style="stroke:#181818;stroke-width:1.0;" x1="8" x2="218.751" y1="294.6211" y2="294.6211"/><ellipse cx="18" cy="309.4316" fill="#000000" rx="3" ry="3" style="stroke:#000000;stroke-width:1.0;"/><text fill="#000000" font-family="sans-serif" font-size="14" lengthAdjust="spacing" textLength="186.751" x="27" y="313.7285">name : character varying(255)</text><ellipse cx="18" cy="328.0527" fill="#000000" rx="3" ry="3" style="stroke:#000000;stroke-width:1.0;"/><text fill="#000000" font-family="sans-serif" font-size="14" lengthAdjust="spacing" textLength="167.2891" x="27" y="332.3496">url : character varying(255)</text></g><!--class database--><g id="elem_database"><rect codeLine="52" fill="#F1F1F1" height="103.8633" id="database" rx="2.5" ry="2.5" style="stroke:#181818;stroke-width:0.5;" width="212.751" x="7" y="437"/><ellipse cx="80.3223" cy="453" fill="#ADD1B2" rx="11" ry="11" style="stroke:#181818;stroke-width:1.0;"/><path d="M79.1816,453.7969 L79.1816,456.2969 L83.5098,456.2969 L83.5098,455.375 Q83.5098,454.7656 83.7441,454.5 Q83.9941,454.2344 84.3691,454.2344 Q84.7441,454.2344 84.9785,454.5 Q85.2129,454.7656 85.2129,455.375 L85.2129,458 L77.2129,458 Q76.5879,458 76.3223,457.7656 Q76.0723,457.5313 76.0723,457.1406 Q76.0723,456.7656 76.3379,456.5313 Q76.6035,456.2969 77.2129,456.2969 L77.4785,456.2969 L77.4785,449.6406 L77.2129,449.6406 Q76.5879,449.6406 76.3223,449.4063 Q76.0723,449.1719 76.0723,448.7813 Q76.0723,448.4063 76.3223,448.1719 Q76.5879,447.9375 77.2129,447.9375 L84.8379,447.9375 L84.8379,450.5313 Q84.8379,451.1406 84.6035,451.4063 Q84.3848,451.6563 83.9941,451.6563 Q83.6191,451.6563 83.3848,451.4063 Q83.1504,451.1406 83.1504,450.5313 L83.1504,449.6406 L79.1816,449.6406 L79.1816,452.0938 L80.666,452.0938 Q80.666,451.4375 80.791,451.25 Q81.0566,450.8438 81.5254,450.8438 Q81.9004,450.8438 82.1348,451.1094 Q82.3691,451.3594 82.3691,451.9688 L82.3691,453.9375 Q82.3691,454.4844 82.2441,454.6719 Q81.9785,455.0625 81.5254,455.0625 Q81.0566,455.0625 80.791,454.6563 Q80.666,454.4688 80.666,453.7969 L79.1816,453.7969 Z " fill="#000000"/><text fill="#000000" font-family="sans-serif" font-size="14" lengthAdjust="spacing" textLength="57.6064" x="100.8223" y="458.7969">database</text><line style="stroke:#181818;stroke-width:0.5;" x1="8" x2="218.751" y1="469" y2="469"/><ellipse cx="18" cy="483.8105" fill="#000000" rx="3" ry="3" style="stroke:#000000;stroke-width:1.0;"/><text fill="#000000" font-family="sans-serif" font-size="14" lengthAdjust="spacing" textLength="131.5508" x="27" y="488.1074">id : uuid &#171;generated&#187;</text><line style="stroke:#181818;stroke-width:1.0;" x1="8" x2="218.751" y1="495.6211" y2="495.6211"/><ellipse cx="18" cy="510.4316" fill="#000000" rx="3" ry="3" style="stroke:#000000;stroke-width:1.0;"/><text fill="#000000" font-family="sans-serif" font-size="14" lengthAdjust="spacing" textLength="186.751" x="27" y="514.7285">name : character varying(255)</text><ellipse cx="18" cy="529.0527" fill="#000000" rx="3" ry="3" style="stroke:#000000;stroke-width:1.0;"/><text fill="#000000" font-family="sans-serif" font-size="14" lengthAdjust="spacing" textLength="120.6338" x="27" y="533.3496">host_id : uuid &#171;FK&#187;</text></g><!--link project to scope--><g id="link_project_scope"><path codeLine="59" d="M412.5,156.22 C412.5,175.4 412.5,180.33 412.5,199.99 " fill="none" id="project-scope" style="stroke:#181818;stroke-width:1.0;stroke-dasharray:7.0,7.0;"/><line style="stroke:#181818;stroke-width:1.0;" x1="408.5" x2="416.5" y1="152.22" y2="152.22"/><line style="stroke:#181818;stroke-width:1.0;" x1="408.5" x2="416.5" y1="155.22" y2="155.22"/><line style="stroke:#181818;stroke-width:1.0;" x1="412.5" x2="412.5" y1="156.22" y2="148.22"/><line style="stroke:#181818;stroke-width:1.0;" x1="412.5" x2="418.5" y1="199.99" y2="207.99"/><line style="stroke:#181818;stroke-width:1.0;" x1="412.5" x2="406.5" y1="199.99" y2="207.99"/><line style="stroke:#181818;stroke-width:1.0;" x1="412.5" x2="412.5" y1="199.99" y2="207.99"/><line style="stroke:#181818;stroke-width:1.0;" x1="416.5" x2="408.5" y1="197.99" y2="197.99"/></g><!--link scope to item--><g id="link_scope_item"><path codeLine="60" d="M412.5,376.22 C412.5,396.06 412.5,401.01 412.5,419.76 " fill="none" id="scope-item" style="stroke:#181818;stroke-width:1.0;stroke-dasharray:7.0,7.0;"/><line style="stroke:#181818;stroke-width:1.0;" x1="408.5" x2="416.5" y1="372.22" y2="372.22"/><line style="stroke:#181818;stroke-width:1.0;" x1="408.5" x2="416.5" y1="375.22" y2="375.22"/><line style="stroke:#181818;stroke-width:1.0;" x1="412.5" x2="412.5" y1="376.22" y2="368.22"/><line style="stroke:#181818;stroke-width:1.0;" x1="412.5" x2="418.5" y1="419.76" y2="427.76"/><line style="stroke:#181818;stroke-width:1.0;" x1="412.5" x2="406.5" y1="419.76" y2="427.76"/><line style="stroke:#181818;stroke-width:1.0;" x1="412.5" x2="412.5" y1="419.76" y2="427.76"/><line style="stroke:#181818;stroke-width:1.0;" x1="416.5" x2="408.5" y1="417.76" y2="417.76"/></g><!--link scope to checkpoint--><g id="link_scope_checkpoint"><path codeLine="62" d="M577.7,288 C589.26,288 584.82,288 596.37,288 " fill="none" id="scope-checkpoint" style="stroke:#181818;stroke-width:1.0;stroke-dasharray:7.0,7.0;"/><line style="stroke:#181818;stroke-width:1.0;" x1="573.7" x2="573.7" y1="292" y2="284"/><line style="stroke:#181818;stroke-width:1.0;" x1="576.7" x2="576.7" y1="292" y2="284"/><line style="stroke:#181818;stroke-width:1.0;" x1="577.7" x2="569.7" y1="288" y2="288"/><line style="stroke:#181818;stroke-width:1.0;" x1="600.37" x2="600.37" y1="284" y2="292"/><line style="stroke:#181818;stroke-width:1.0;" x1="597.37" x2="597.37" y1="284" y2="292"/><line style="stroke:#181818;stroke-width:1.0;" x1="596.37" x2="604.37" y1="288" y2="288"/></g><!--link checkpoint to checkpoint_batches--><g id="link_checkpoint_checkpoint_batches"><path codeLine="64" d="M683.5,357.25 C683.5,385.16 683.5,401.98 683.5,428.69 " fill="none" id="checkpoint-checkpoint_batches" style="stroke:#181818;stroke-width:1.0;stroke-dasharray:7.0,7.0;"/><line style="stroke:#181818;stroke-width:1.0;" x1="679.5" x2="687.5" y1="353.25" y2="353.25"/><line style="stroke:#181818;stroke-width:1.0;" x1="679.5" x2="687.5" y1="356.25" y2="356.25"/><line style="stroke:#181818;stroke-width:1.0;" x1="683.5" x2="683.5" y1="357.25" y2="349.25"/><line style="stroke:#181818;stroke-width:1.0;" x1="683.5" x2="689.5" y1="428.69" y2="436.69"/><line style="stroke:#181818;stroke-width:1.0;" x1="683.5" x2="677.5" y1="428.69" y2="436.69"/><line style="stroke:#181818;stroke-width:1.0;" x1="683.5" x2="683.5" y1="428.69" y2="436.69"/><line style="stroke:#181818;stroke-width:1.0;" x1="687.5" x2="679.5" y1="426.69" y2="426.69"/></g><!--link host to database--><g id="link_host_database"><path codeLine="66" d="M113.5,348.25 C113.5,377.96 113.5,399.24 113.5,428.93 " fill="none" id="host-database" style="stroke:#181818;stroke-width:1.0;stroke-dasharray:7.0,7.0;"/><line style="stroke:#181818;stroke-width:1.0;" x1="109.5" x2="117.5" y1="344.25" y2="344.25"/><line style="stroke:#181818;stroke-width:1.0;" x1="109.5" x2="117.5" y1="347.25" y2="347.25"/><line style="stroke:#181818;stroke-width:1.0;" x1="113.5" x2="113.5" y1="348.25" y2="340.25"/><line style="stroke:#181818;stroke-width:1.0;" x1="113.5" x2="119.5" y1="428.93" y2="436.93"/><line style="stroke:#181818;stroke-width:1.0;" x1="113.5" x2="107.5" y1="428.93" y2="436.93"/><line style="stroke:#181818;stroke-width:1.0;" x1="113.5" x2="113.5" y1="428.93" y2="436.93"/><line style="stroke:#181818;stroke-width:1.0;" x1="117.5" x2="109.5" y1="426.93" y2="426.93"/></g><!--link host to scope--><rect fill="#DDDDDD" height="28.6211" id="_legend" rx="7.5" ry="7.5" style="stroke:#000000;stroke-width:1.0;" width="140.7168" x="314.6929" y="568.4844"/><text fill="#000000" font-family="sans-serif" font-size="14" lengthAdjust="spacing" textLength="130.7168" x="319.6929" y="588.5918">Crow&#8217;s Foot Notation</text><!--SRC=[jLHBJiCm4Dtx55wsbTe5KbcWgXkaRf2u04AHOm-DsyIEx0dz1ObhS3rEmYHrQ4GXAAXaaKWpxysyDnudXIKOnM-TtRo_ldc-i1RvlKM1sXh6mA367S-TNO54Vc2SdX7NYj_meg3FR4PyS091pUTrTZmE82Co89XCX1CImV5duNRQB0TNq-amOEo6oB-1f8EgVgJeJLZK6NWKMJwu7lADniGMM0VvtXgeEQdm61Mvwa5x-JJhfSsXdzKrx2vlOiIVjD4-WKf1R6qAmeG4RAcB4UbP8XnKr5Qzk2Ev9tiQ8UldZdHYuRiDKkCS76geS2jlJToGgsbswP49o7LkjUcvNh50cKHUxwjn4fiMsOKKqlwcKGq0JoFIIyhtrzDK-8ikRHHi-PVUhT8T0XBh_-6c5Ixz6N9gJkifOk7XyW8gMz_QRdukPJcPb8VZ0R7Z9GoXQcNPALIMhKaorbgWW3y_GiRggOPyOp94nm-9LWhCupmq_m00]--></g></svg>