<svg xmlns="http://www.w3.org/2000/svg" xmlns:xlink="http://www.w3.org/1999/xlink" contentStyleType="text/css" height="762px" preserveAspectRatio="none" style="width:842px;height:762px;background:#FFFFFF;" version="1.1" viewBox="0 0 842 762" width="842px" zoomAndPan="magnify"><defs/><g><!--class project--><g id="elem_project"><rect codeLine="3" fill="#F1F1F1" height="141.1055" id="project" rx="2.5" ry="2.5" style="stroke:#181818;stroke-width:0.5;" width="165.3027" x="199" y="7"/><ellipse cx="256.3911" cy="23" fill="#ADD1B2" rx="11" ry="11" style="stroke:#181818;stroke-width:1.0;"/><path d="M255.2505,23.7969 L255.2505,26.2969 L259.5786,26.2969 L259.5786,25.375 Q259.5786,24.7656 259.813,24.5 Q260.063,24.2344 260.438,24.2344 Q260.813,24.2344 261.0474,24.5 Q261.2817,24.7656 261.2817,25.375 L261.2817,28 L253.2817,28 Q252.6567,28 252.3911,27.7656 Q252.1411,27.5313 252.1411,27.1406 Q252.1411,26.7656 252.4067,26.5313 Q252.6724,26.2969 253.2817,26.2969 L253.5474,26.2969 L253.5474,19.6406 L253.2817,19.6406 Q252.6567,19.6406 252.3911,19.4063 Q252.1411,19.1719 252.1411,18.7813 Q252.1411,18.4063 252.3911,18.1719 Q252.6567,17.9375 253.2817,17.9375 L260.9067,17.9375 L260.9067,20.5313 Q260.9067,21.1406 260.6724,21.4063 Q260.4536,21.6563 260.063,21.6563 Q259.688,21.6563 259.4536,21.4063 Q259.2192,21.1406 259.2192,20.5313 L259.2192,19.6406 L255.2505,19.6406 L255.2505,22.0938 L256.7349,22.0938 Q256.7349,21.4375 256.8599,21.25 Q257.1255,20.8438 257.5942,20.8438 Q257.9692,20.8438 258.2036,21.1094 Q258.438,21.3594 258.438,21.9688 L258.438,23.9375 Q258.438,24.4844 258.313,24.6719 Q258.0474,25.0625 257.5942,25.0625 Q257.1255,25.0625 256.8599,24.6563 Q256.7349,24.4688 256.7349,23.7969 L255.2505,23.7969 Z " fill="#000000"/><text fill="#000000" font-family="sans-serif" font-size="14" lengthAdjust="spacing" textLength="42.0205" x="276.8911" y="28.7969">project</text><line style="stroke:#181818;stroke-width:0.5;" x1="200" x2="363.3027" y1="39" y2="39"/><ellipse cx="210" cy="53.8105" fill="#000000" rx="3" ry="3" style="stroke:#000000;stroke-width:1.0;"/><text fill="#000000" font-family="sans-serif" font-size="14" lengthAdjust="spacing" textLength="139.3027" x="219" y="58.1074">id : UUID &#171;generated&#187;</text><line style="stroke:#181818;stroke-width:1.0;" x1="200" x2="363.3027" y1="65.6211" y2="65.6211"/><ellipse cx="210" cy="80.4316" fill="#000000" rx="3" ry="3" style="stroke:#000000;stroke-width:1.0;"/><text fill="#000000" font-family="sans-serif" font-size="14" lengthAdjust="spacing" textLength="69.2549" x="219" y="84.7285">name : text</text><ellipse cx="210" cy="99.0527" fill="#000000" rx="3" ry="3" style="stroke:#000000;stroke-width:1.0;"/><text fill="#000000" font-family="sans-serif" font-size="14" lengthAdjust="spacing" textLength="72.3652" x="219" y="103.3496">owner : text</text><ellipse cx="210" cy="117.6738" fill="#000000" rx="3" ry="3" style="stroke:#000000;stroke-width:1.0;"/><text fill="#000000" font-family="sans-serif" font-size="14" lengthAdjust="spacing" textLength="85.6133" x="219" y="121.9707">created : date</text><text fill="#000000" font-family="sans-serif" font-size="14" lengthAdjust="spacing" textLength="119.0957" x="219" y="140.5918">last_updated : date</text></g><!--class scope--><g id="elem_scope"><rect codeLine="12" fill="#F1F1F1" height="159.7266" id="scope" rx="2.5" ry="2.5" style="stroke:#181818;stroke-width:0.5;" width="169.9443" x="196.5" y="208"/><ellipse cx="258.543" cy="224" fill="#ADD1B2" rx="11" ry="11" style="stroke:#181818;stroke-width:1.0;"/><path d="M257.4023,224.7969 L257.4023,227.2969 L261.7305,227.2969 L261.7305,226.375 Q261.7305,225.7656 261.9648,225.5 Q262.2148,225.2344 262.5898,225.2344 Q262.9648,225.2344 263.1992,225.5 Q263.4336,225.7656 263.4336,226.375 L263.4336,229 L255.4336,229 Q254.8086,229 254.543,228.7656 Q254.293,228.5313 254.293,228.1406 Q254.293,227.7656 254.5586,227.5313 Q254.8242,227.2969 255.4336,227.2969 L255.6992,227.2969 L255.6992,220.6406 L255.4336,220.6406 Q254.8086,220.6406 254.543,220.4063 Q254.293,220.1719 254.293,219.7813 Q254.293,219.4063 254.543,219.1719 Q254.8086,218.9375 255.4336,218.9375 L263.0586,218.9375 L263.0586,221.5313 Q263.0586,222.1406 262.8242,222.4063 Q262.6055,222.6563 262.2148,222.6563 Q261.8398,222.6563 261.6055,222.4063 Q261.3711,222.1406 261.3711,221.5313 L261.3711,220.6406 L257.4023,220.6406 L257.4023,223.0938 L258.8867,223.0938 Q258.8867,222.4375 259.0117,222.25 Q259.2773,221.8438 259.7461,221.8438 Q260.1211,221.8438 260.3555,222.1094 Q260.5898,222.3594 260.5898,222.9688 L260.5898,224.9375 Q260.5898,225.4844 260.4648,225.6719 Q260.1992,226.0625 259.7461,226.0625 Q259.2773,226.0625 259.0117,225.6563 Q258.8867,225.4688 258.8867,224.7969 L257.4023,224.7969 Z " fill="#000000"/><text fill="#000000" font-family="sans-serif" font-size="14" lengthAdjust="spacing" textLength="37.3584" x="279.043" y="229.7969">scope</text><line style="stroke:#181818;stroke-width:0.5;" x1="197.5" x2="365.4443" y1="240" y2="240"/><ellipse cx="207.5" cy="254.8105" fill="#000000" rx="3" ry="3" style="stroke:#000000;stroke-width:1.0;"/><text fill="#000000" font-family="sans-serif" font-size="14" lengthAdjust="spacing" textLength="139.3027" x="216.5" y="259.1074">id : UUID &#171;generated&#187;</text><line style="stroke:#181818;stroke-width:1.0;" x1="197.5" x2="365.4443" y1="266.6211" y2="266.6211"/><ellipse cx="207.5" cy="281.4316" fill="#000000" rx="3" ry="3" style="stroke:#000000;stroke-width:1.0;"/><text fill="#000000" font-family="sans-serif" font-size="14" lengthAdjust="spacing" textLength="56.0205" x="216.5" y="285.7285">key : text</text><ellipse cx="207.5" cy="300.0527" fill="#000000" rx="3" ry="3" style="stroke:#000000;stroke-width:1.0;"/><text fill="#000000" font-family="sans-serif" font-size="14" lengthAdjust="spacing" textLength="85.6133" x="216.5" y="304.3496">created : date</text><ellipse cx="207.5" cy="318.6738" fill="#000000" rx="3" ry="3" style="stroke:#000000;stroke-width:1.0;"/><text fill="#000000" font-family="sans-serif" font-size="14" lengthAdjust="spacing" textLength="109.751" x="216.5" y="322.9707">finished : boolean</text><ellipse cx="207.5" cy="337.2949" fill="#000000" rx="3" ry="3" style="stroke:#000000;stroke-width:1.0;"/><text fill="#000000" font-family="sans-serif" font-size="14" lengthAdjust="spacing" textLength="60.6963" x="216.5" y="341.5918">type : text</text><ellipse cx="207.5" cy="355.916" fill="#000000" rx="3" ry="3" style="stroke:#000000;stroke-width:1.0;"/><text fill="#000000" font-family="sans-serif" font-size="14" lengthAdjust="spacing" textLength="143.9443" x="216.5" y="360.2129">project_id : UUID &#171;FK&#187;</text></g><!--class item--><g id="elem_item"><rect codeLine="22" fill="#F1F1F1" height="103.8633" id="item" rx="2.5" ry="2.5" style="stroke:#181818;stroke-width:0.5;" width="165.3027" x="199" y="428"/><ellipse cx="264.1772" cy="444" fill="#ADD1B2" rx="11" ry="11" style="stroke:#181818;stroke-width:1.0;"/><path d="M263.0366,444.7969 L263.0366,447.2969 L267.3647,447.2969 L267.3647,446.375 Q267.3647,445.7656 267.5991,445.5 Q267.8491,445.2344 268.2241,445.2344 Q268.5991,445.2344 268.8335,445.5 Q269.0679,445.7656 269.0679,446.375 L269.0679,449 L261.0679,449 Q260.4429,449 260.1772,448.7656 Q259.9272,448.5313 259.9272,448.1406 Q259.9272,447.7656 260.1929,447.5313 Q260.4585,447.2969 261.0679,447.2969 L261.3335,447.2969 L261.3335,440.6406 L261.0679,440.6406 Q260.4429,440.6406 260.1772,440.4063 Q259.9272,440.1719 259.9272,439.7813 Q259.9272,439.4063 260.1772,439.1719 Q260.4429,438.9375 261.0679,438.9375 L268.6929,438.9375 L268.6929,441.5313 Q268.6929,442.1406 268.4585,442.4063 Q268.2397,442.6563 267.8491,442.6563 Q267.4741,442.6563 267.2397,442.4063 Q267.0054,442.1406 267.0054,441.5313 L267.0054,440.6406 L263.0366,440.6406 L263.0366,443.0938 L264.521,443.0938 Q264.521,442.4375 264.646,442.25 Q264.9116,441.8438 265.3804,441.8438 Q265.7554,441.8438 265.9897,442.1094 Q266.2241,442.3594 266.2241,442.9688 L266.2241,444.9375 Q266.2241,445.4844 266.0991,445.6719 Q265.8335,446.0625 265.3804,446.0625 Q264.9116,446.0625 264.646,445.6563 Q264.521,445.4688 264.521,444.7969 L263.0366,444.7969 Z " fill="#000000"/><text fill="#000000" font-family="sans-serif" font-size="14" lengthAdjust="spacing" textLength="26.4482" x="284.6772" y="449.7969">item</text><line style="stroke:#181818;stroke-width:0.5;" x1="200" x2="363.3027" y1="460" y2="460"/><ellipse cx="210" cy="474.8105" fill="#000000" rx="3" ry="3" style="stroke:#000000;stroke-width:1.0;"/><text fill="#000000" font-family="sans-serif" font-size="14" lengthAdjust="spacing" textLength="139.3027" x="219" y="479.1074">id : UUID &#171;generated&#187;</text><line style="stroke:#181818;stroke-width:1.0;" x1="200" x2="363.3027" y1="486.6211" y2="486.6211"/><ellipse cx="210" cy="501.4316" fill="#000000" rx="3" ry="3" style="stroke:#000000;stroke-width:1.0;"/><text fill="#000000" font-family="sans-serif" font-size="14" lengthAdjust="spacing" textLength="71.5859" x="219" y="505.7285">status : text</text><ellipse cx="210" cy="520.0527" fill="#000000" rx="3" ry="3" style="stroke:#000000;stroke-width:1.0;"/><text fill="#000000" font-family="sans-serif" font-size="14" lengthAdjust="spacing" textLength="139.2822" x="219" y="524.3496">scope_id : UUID &#171;FK&#187;</text></g><!--class item_properties--><g id="elem_item_properties"><rect codeLine="29" fill="#F1F1F1" height="103.8633" id="item_properties" rx="2.5" ry="2.5" style="stroke:#181818;stroke-width:0.5;" width="199.5371" x="181.5" y="592"/><ellipse cx="228.7739" cy="608" fill="#ADD1B2" rx="11" ry="11" style="stroke:#181818;stroke-width:1.0;"/><path d="M227.6333,608.7969 L227.6333,611.2969 L231.9614,611.2969 L231.9614,610.375 Q231.9614,609.7656 232.1958,609.5 Q232.4458,609.2344 232.8208,609.2344 Q233.1958,609.2344 233.4302,609.5 Q233.6646,609.7656 233.6646,610.375 L233.6646,613 L225.6646,613 Q225.0396,613 224.7739,612.7656 Q224.5239,612.5313 224.5239,612.1406 Q224.5239,611.7656 224.7896,611.5313 Q225.0552,611.2969 225.6646,611.2969 L225.9302,611.2969 L225.9302,604.6406 L225.6646,604.6406 Q225.0396,604.6406 224.7739,604.4063 Q224.5239,604.1719 224.5239,603.7813 Q224.5239,603.4063 224.7739,603.1719 Q225.0396,602.9375 225.6646,602.9375 L233.2896,602.9375 L233.2896,605.5313 Q233.2896,606.1406 233.0552,606.4063 Q232.8364,606.6563 232.4458,606.6563 Q232.0708,606.6563 231.8364,606.4063 Q231.6021,606.1406 231.6021,605.5313 L231.6021,604.6406 L227.6333,604.6406 L227.6333,607.0938 L229.1177,607.0938 Q229.1177,606.4375 229.2427,606.25 Q229.5083,605.8438 229.9771,605.8438 Q230.3521,605.8438 230.5864,606.1094 Q230.8208,606.3594 230.8208,606.9688 L230.8208,608.9375 Q230.8208,609.4844 230.6958,609.6719 Q230.4302,610.0625 229.9771,610.0625 Q229.5083,610.0625 229.2427,609.6563 Q229.1177,609.4688 229.1177,608.7969 L227.6333,608.7969 Z " fill="#000000"/><text fill="#000000" font-family="sans-serif" font-size="14" lengthAdjust="spacing" textLength="96.4893" x="249.2739" y="613.7969">item_properties</text><line style="stroke:#181818;stroke-width:0.5;" x1="182.5" x2="380.0371" y1="624" y2="624"/><ellipse cx="192.5" cy="638.8105" fill="#000000" rx="3" ry="3" style="stroke:#000000;stroke-width:1.0;"/><text fill="#000000" font-family="sans-serif" font-size="14" lengthAdjust="spacing" textLength="173.5371" x="201.5" y="643.1074">item_id : UUID &#171;generated&#187;</text><ellipse cx="192.5" cy="657.4316" fill="#000000" rx="3" ry="3" style="stroke:#000000;stroke-width:1.0;"/><text fill="#000000" font-family="sans-serif" font-size="14" lengthAdjust="spacing" textLength="141.627" x="201.5" y="661.7285">item_name : text &#171;PK&#187;</text><line style="stroke:#181818;stroke-width:1.0;" x1="182.5" x2="380.0371" y1="669.2422" y2="669.2422"/><text fill="#000000" font-family="sans-serif" font-size="14" lengthAdjust="spacing" textLength="96.4893" x="187.5" y="688.3496">properties : text</text></g><!--class checkpoint--><g id="elem_checkpoint"><rect codeLine="36" fill="#F1F1F1" height="103.8633" id="checkpoint" rx="2.5" ry="2.5" style="stroke:#181818;stroke-width:0.5;" width="166.0684" x="416.5" y="25.5"/><ellipse cx="461.8188" cy="41.5" fill="#ADD1B2" rx="11" ry="11" style="stroke:#181818;stroke-width:1.0;"/><path d="M460.6782,42.2969 L460.6782,44.7969 L465.0063,44.7969 L465.0063,43.875 Q465.0063,43.2656 465.2407,43 Q465.4907,42.7344 465.8657,42.7344 Q466.2407,42.7344 466.4751,43 Q466.7095,43.2656 466.7095,43.875 L466.7095,46.5 L458.7095,46.5 Q458.0845,46.5 457.8188,46.2656 Q457.5688,46.0313 457.5688,45.6406 Q457.5688,45.2656 457.8345,45.0313 Q458.1001,44.7969 458.7095,44.7969 L458.9751,44.7969 L458.9751,38.1406 L458.7095,38.1406 Q458.0845,38.1406 457.8188,37.9063 Q457.5688,37.6719 457.5688,37.2813 Q457.5688,36.9063 457.8188,36.6719 Q458.0845,36.4375 458.7095,36.4375 L466.3345,36.4375 L466.3345,39.0313 Q466.3345,39.6406 466.1001,39.9063 Q465.8813,40.1563 465.4907,40.1563 Q465.1157,40.1563 464.8813,39.9063 Q464.647,39.6406 464.647,39.0313 L464.647,38.1406 L460.6782,38.1406 L460.6782,40.5938 L462.1626,40.5938 Q462.1626,39.9375 462.2876,39.75 Q462.5532,39.3438 463.022,39.3438 Q463.397,39.3438 463.6313,39.6094 Q463.8657,39.8594 463.8657,40.4688 L463.8657,42.4375 Q463.8657,42.9844 463.7407,43.1719 Q463.4751,43.5625 463.022,43.5625 Q462.5532,43.5625 462.2876,43.1563 Q462.1626,42.9688 462.1626,42.2969 L460.6782,42.2969 Z " fill="#000000"/><text fill="#000000" font-family="sans-serif" font-size="14" lengthAdjust="spacing" textLength="66.9307" x="482.3188" y="47.2969">checkpoint</text><line style="stroke:#181818;stroke-width:0.5;" x1="417.5" x2="581.5684" y1="57.5" y2="57.5"/><ellipse cx="427.5" cy="72.3105" fill="#000000" rx="3" ry="3" style="stroke:#000000;stroke-width:1.0;"/><text fill="#000000" font-family="sans-serif" font-size="14" lengthAdjust="spacing" textLength="140.0684" x="436.5" y="76.6074">scope_id : UUID &#171;PK&#187;</text><line style="stroke:#181818;stroke-width:1.0;" x1="417.5" x2="581.5684" y1="84.1211" y2="84.1211"/><ellipse cx="427.5" cy="98.9316" fill="#000000" rx="3" ry="3" style="stroke:#000000;stroke-width:1.0;"/><text fill="#000000" font-family="sans-serif" font-size="14" lengthAdjust="spacing" textLength="121.4063" x="436.5" y="103.2285">batch_size : integer</text><ellipse cx="427.5" cy="117.5527" fill="#000000" rx="3" ry="3" style="stroke:#000000;stroke-width:1.0;"/><text fill="#000000" font-family="sans-serif" font-size="14" lengthAdjust="spacing" textLength="106.5928" x="436.5" y="121.8496">project_id : UUID</text></g><!--class checkpoint_batches--><g id="elem_checkpoint_batches"><rect codeLine="43" fill="#F1F1F1" height="103.8633" id="checkpoint_batches" rx="2.5" ry="2.5" style="stroke:#181818;stroke-width:0.5;" width="194.8545" x="402" y="236"/><ellipse cx="434.5966" cy="252" fill="#ADD1B2" rx="11" ry="11" style="stroke:#181818;stroke-width:1.0;"/><path d="M433.456,252.7969 L433.456,255.2969 L437.7841,255.2969 L437.7841,254.375 Q437.7841,253.7656 438.0185,253.5 Q438.2685,253.2344 438.6435,253.2344 Q439.0185,253.2344 439.2528,253.5 Q439.4872,253.7656 439.4872,254.375 L439.4872,257 L431.4872,257 Q430.8622,257 430.5966,256.7656 Q430.3466,256.5313 430.3466,256.1406 Q430.3466,255.7656 430.6122,255.5313 Q430.8778,255.2969 431.4872,255.2969 L431.7528,255.2969 L431.7528,248.6406 L431.4872,248.6406 Q430.8622,248.6406 430.5966,248.4063 Q430.3466,248.1719 430.3466,247.7813 Q430.3466,247.4063 430.5966,247.1719 Q430.8622,246.9375 431.4872,246.9375 L439.1122,246.9375 L439.1122,249.5313 Q439.1122,250.1406 438.8778,250.4063 Q438.6591,250.6563 438.2685,250.6563 Q437.8935,250.6563 437.6591,250.4063 Q437.4247,250.1406 437.4247,249.5313 L437.4247,248.6406 L433.456,248.6406 L433.456,251.0938 L434.9403,251.0938 Q434.9403,250.4375 435.0653,250.25 Q435.331,249.8438 435.7997,249.8438 Q436.1747,249.8438 436.4091,250.1094 Q436.6435,250.3594 436.6435,250.9688 L436.6435,252.9375 Q436.6435,253.4844 436.5185,253.6719 Q436.2528,254.0625 435.7997,254.0625 Q435.331,254.0625 435.0653,253.6563 Q434.9403,253.4688 434.9403,252.7969 L433.456,252.7969 Z " fill="#000000"/><text fill="#000000" font-family="sans-serif" font-size="14" lengthAdjust="spacing" textLength="123.751" x="452.5069" y="257.7969">checkpoint_batches</text><line style="stroke:#181818;stroke-width:0.5;" x1="403" x2="595.8545" y1="268" y2="268"/><ellipse cx="413" cy="282.8105" fill="#000000" rx="3" ry="3" style="stroke:#000000;stroke-width:1.0;"/><text fill="#000000" font-family="sans-serif" font-size="14" lengthAdjust="spacing" textLength="139.3027" x="422" y="287.1074">id : UUID &#171;generated&#187;</text><line style="stroke:#181818;stroke-width:1.0;" x1="403" x2="595.8545" y1="294.6211" y2="294.6211"/><ellipse cx="413" cy="309.4316" fill="#000000" rx="3" ry="3" style="stroke:#000000;stroke-width:1.0;"/><text fill="#000000" font-family="sans-serif" font-size="14" lengthAdjust="spacing" textLength="113.6406" x="422" y="313.7285">batch_index : long</text><ellipse cx="413" cy="328.0527" fill="#000000" rx="3" ry="3" style="stroke:#000000;stroke-width:1.0;"/><text fill="#000000" font-family="sans-serif" font-size="14" lengthAdjust="spacing" textLength="168.8545" x="422" y="332.3496">checkpoint_id : UUID &#171;FK&#187;</text></g><!--class host--><g id="elem_host"><rect codeLine="50" fill="#F1F1F1" height="103.8633" id="host" rx="2.5" ry="2.5" style="stroke:#181818;stroke-width:0.5;" width="165.3027" x="417" y="428"/><ellipse cx="482.1704" cy="444" fill="#ADD1B2" rx="11" ry="11" style="stroke:#181818;stroke-width:1.0;"/><path d="M481.0298,444.7969 L481.0298,447.2969 L485.3579,447.2969 L485.3579,446.375 Q485.3579,445.7656 485.5923,445.5 Q485.8423,445.2344 486.2173,445.2344 Q486.5923,445.2344 486.8267,445.5 Q487.061,445.7656 487.061,446.375 L487.061,449 L479.061,449 Q478.436,449 478.1704,448.7656 Q477.9204,448.5313 477.9204,448.1406 Q477.9204,447.7656 478.186,447.5313 Q478.4517,447.2969 479.061,447.2969 L479.3267,447.2969 L479.3267,440.6406 L479.061,440.6406 Q478.436,440.6406 478.1704,440.4063 Q477.9204,440.1719 477.9204,439.7813 Q477.9204,439.4063 478.1704,439.1719 Q478.436,438.9375 479.061,438.9375 L486.686,438.9375 L486.686,441.5313 Q486.686,442.1406 486.4517,442.4063 Q486.2329,442.6563 485.8423,442.6563 Q485.4673,442.6563 485.2329,442.4063 Q484.9985,442.1406 484.9985,441.5313 L484.9985,440.6406 L481.0298,440.6406 L481.0298,443.0938 L482.5142,443.0938 Q482.5142,442.4375 482.6392,442.25 Q482.9048,441.8438 483.3735,441.8438 Q483.7485,441.8438 483.9829,442.1094 Q484.2173,442.3594 484.2173,442.9688 L484.2173,444.9375 Q484.2173,445.4844 484.0923,445.6719 Q483.8267,446.0625 483.3735,446.0625 Q482.9048,446.0625 482.6392,445.6563 Q482.5142,445.4688 482.5142,444.7969 L481.0298,444.7969 Z " fill="#000000"/><text fill="#000000" font-family="sans-serif" font-size="14" lengthAdjust="spacing" textLength="26.4619" x="502.6704" y="449.7969">host</text><line style="stroke:#181818;stroke-width:0.5;" x1="418" x2="581.3027" y1="460" y2="460"/><ellipse cx="428" cy="474.8105" fill="#000000" rx="3" ry="3" style="stroke:#000000;stroke-width:1.0;"/><text fill="#000000" font-family="sans-serif" font-size="14" lengthAdjust="spacing" textLength="139.3027" x="437" y="479.1074">id : UUID &#171;generated&#187;</text><line style="stroke:#181818;stroke-width:1.0;" x1="418" x2="581.3027" y1="486.6211" y2="486.6211"/><ellipse cx="428" cy="501.4316" fill="#000000" rx="3" ry="3" style="stroke:#000000;stroke-width:1.0;"/><text fill="#000000" font-family="sans-serif" font-size="14" lengthAdjust="spacing" textLength="69.2549" x="437" y="505.7285">name : text</text><ellipse cx="428" cy="520.0527" fill="#000000" rx="3" ry="3" style="stroke:#000000;stroke-width:1.0;"/><text fill="#000000" font-family="sans-serif" font-size="14" lengthAdjust="spacing" textLength="49.793" x="437" y="524.3496">url : text</text></g><!--class database--><g id="elem_database"><rect codeLine="57" fill="#F1F1F1" height="103.8633" id="database" rx="2.5" ry="2.5" style="stroke:#181818;stroke-width:0.5;" width="165.3027" x="417" y="592"/><ellipse cx="466.5981" cy="608" fill="#ADD1B2" rx="11" ry="11" style="stroke:#181818;stroke-width:1.0;"/><path d="M465.4575,608.7969 L465.4575,611.2969 L469.7856,611.2969 L469.7856,610.375 Q469.7856,609.7656 470.02,609.5 Q470.27,609.2344 470.645,609.2344 Q471.02,609.2344 471.2544,609.5 Q471.4888,609.7656 471.4888,610.375 L471.4888,613 L463.4888,613 Q462.8638,613 462.5981,612.7656 Q462.3481,612.5313 462.3481,612.1406 Q462.3481,611.7656 462.6138,611.5313 Q462.8794,611.2969 463.4888,611.2969 L463.7544,611.2969 L463.7544,604.6406 L463.4888,604.6406 Q462.8638,604.6406 462.5981,604.4063 Q462.3481,604.1719 462.3481,603.7813 Q462.3481,603.4063 462.5981,603.1719 Q462.8638,602.9375 463.4888,602.9375 L471.1138,602.9375 L471.1138,605.5313 Q471.1138,606.1406 470.8794,606.4063 Q470.6606,606.6563 470.27,606.6563 Q469.895,606.6563 469.6606,606.4063 Q469.4263,606.1406 469.4263,605.5313 L469.4263,604.6406 L465.4575,604.6406 L465.4575,607.0938 L466.9419,607.0938 Q466.9419,606.4375 467.0669,606.25 Q467.3325,605.8438 467.8013,605.8438 Q468.1763,605.8438 468.4106,606.1094 Q468.645,606.3594 468.645,606.9688 L468.645,608.9375 Q468.645,609.4844 468.52,609.6719 Q468.2544,610.0625 467.8013,610.0625 Q467.3325,610.0625 467.0669,609.6563 Q466.9419,609.4688 466.9419,608.7969 L465.4575,608.7969 Z " fill="#000000"/><text fill="#000000" font-family="sans-serif" font-size="14" lengthAdjust="spacing" textLength="57.6064" x="487.0981" y="613.7969">database</text><line style="stroke:#181818;stroke-width:0.5;" x1="418" x2="581.3027" y1="624" y2="624"/><ellipse cx="428" cy="638.8105" fill="#000000" rx="3" ry="3" style="stroke:#000000;stroke-width:1.0;"/><text fill="#000000" font-family="sans-serif" font-size="14" lengthAdjust="spacing" textLength="139.3027" x="437" y="643.1074">id : UUID &#171;generated&#187;</text><line style="stroke:#181818;stroke-width:1.0;" x1="418" x2="581.3027" y1="650.6211" y2="650.6211"/><ellipse cx="428" cy="665.4316" fill="#000000" rx="3" ry="3" style="stroke:#000000;stroke-width:1.0;"/><text fill="#000000" font-family="sans-serif" font-size="14" lengthAdjust="spacing" textLength="69.2549" x="437" y="669.7285">name : text</text><ellipse cx="428" cy="684.0527" fill="#000000" rx="3" ry="3" style="stroke:#000000;stroke-width:1.0;"/><text fill="#000000" font-family="sans-serif" font-size="14" lengthAdjust="spacing" textLength="128.3857" x="437" y="688.3496">host_id : UUID &#171;FK&#187;</text></g><g id="elem_GMN10"><path d="M6,265.5 L6,310.082 A0,0 0 0 0 6,310.082 L160.7007,310.082 A0,0 0 0 0 160.7007,310.082 L160.7007,292 L196.47,288 L160.7007,284 L160.7007,275.5 L150.7007,265.5 L6,265.5 A0,0 0 0 0 6,265.5 " fill="#FEFFDD" style="stroke:#181818;stroke-width:0.5;"/><path d="M150.7007,265.5 L150.7007,275.5 L160.7007,275.5 L150.7007,265.5 " fill="#FEFFDD" style="stroke:#181818;stroke-width:0.5;"/><text fill="#000000" font-family="sans-serif" font-size="13" lengthAdjust="spacing" textLength="105.5107" x="12" y="284.5283">key and project_id</text><text fill="#000000" font-family="sans-serif" font-size="13" lengthAdjust="spacing" textLength="130.0889" x="15.6118" y="301.8193">unique as combination</text></g><g id="elem_GMN13"><path d="M632,265.5 L632,284 L597.3,288 L632,292 L632,310.082 A0,0 0 0 0 632,310.082 L835.1333,310.082 A0,0 0 0 0 835.1333,310.082 L835.1333,275.5 L825.1333,265.5 L632,265.5 A0,0 0 0 0 632,265.5 " fill="#FEFFDD" style="stroke:#181818;stroke-width:0.5;"/><path d="M825.1333,265.5 L825.1333,275.5 L835.1333,275.5 L825.1333,265.5 " fill="#FEFFDD" style="stroke:#181818;stroke-width:0.5;"/><text fill="#000000" font-family="sans-serif" font-size="13" lengthAdjust="spacing" textLength="178.5215" x="638" y="284.5283">batch_index and checkpoint_id</text><text fill="#000000" font-family="sans-serif" font-size="13" lengthAdjust="spacing" textLength="130.0889" x="641.6118" y="301.8193">unique as combination</text></g><!--link project to scope--><g id="link_project_scope"><path codeLine="67" d="M281.5,156.22 C281.5,175.4 281.5,180.33 281.5,199.99 " fill="none" id="project-scope" style="stroke:#181818;stroke-width:1.0;stroke-dasharray:7.0,7.0;"/><line style="stroke:#181818;stroke-width:1.0;" x1="277.5" x2="285.5" y1="152.22" y2="152.22"/><line style="stroke:#181818;stroke-width:1.0;" x1="277.5" x2="285.5" y1="155.22" y2="155.22"/><line style="stroke:#181818;stroke-width:1.0;" x1="281.5" x2="281.5" y1="156.22" y2="148.22"/><line style="stroke:#181818;stroke-width:1.0;" x1="281.5" x2="287.5" y1="199.99" y2="207.99"/><line style="stroke:#181818;stroke-width:1.0;" x1="281.5" x2="275.5" y1="199.99" y2="207.99"/><line style="stroke:#181818;stroke-width:1.0;" x1="281.5" x2="281.5" y1="199.99" y2="207.99"/><line style="stroke:#181818;stroke-width:1.0;" x1="285.5" x2="277.5" y1="197.99" y2="197.99"/></g><!--link scope to item--><g id="link_scope_item"><path codeLine="68" d="M281.5,376.2 C281.5,396.36 281.5,401.5 281.5,419.84 " fill="none" id="scope-item" style="stroke:#181818;stroke-width:1.0;stroke-dasharray:7.0,7.0;"/><line style="stroke:#181818;stroke-width:1.0;" x1="277.5" x2="285.5" y1="372.2" y2="372.2"/><line style="stroke:#181818;stroke-width:1.0;" x1="277.5" x2="285.5" y1="375.2" y2="375.2"/><line style="stroke:#181818;stroke-width:1.0;" x1="281.5" x2="281.5" y1="376.2" y2="368.2"/><line style="stroke:#181818;stroke-width:1.0;" x1="281.5" x2="287.5" y1="419.84" y2="427.84"/><line style="stroke:#181818;stroke-width:1.0;" x1="281.5" x2="275.5" y1="419.84" y2="427.84"/><line style="stroke:#181818;stroke-width:1.0;" x1="281.5" x2="281.5" y1="419.84" y2="427.84"/><line style="stroke:#181818;stroke-width:1.0;" x1="285.5" x2="277.5" y1="417.84" y2="417.84"/></g><!--link item to item_properties--><g id="link_item_item_properties"><path codeLine="69" d="M281.5,540.26 C281.5,559.26 281.5,564.8 281.5,583.8 " fill="none" id="item-item_properties" style="stroke:#181818;stroke-width:1.0;stroke-dasharray:7.0,7.0;"/><line style="stroke:#181818;stroke-width:1.0;" x1="277.5" x2="285.5" y1="536.26" y2="536.26"/><line style="stroke:#181818;stroke-width:1.0;" x1="277.5" x2="285.5" y1="539.26" y2="539.26"/><line style="stroke:#181818;stroke-width:1.0;" x1="281.5" x2="281.5" y1="540.26" y2="532.26"/><line style="stroke:#181818;stroke-width:1.0;" x1="281.5" x2="287.5" y1="583.8" y2="591.8"/><line style="stroke:#181818;stroke-width:1.0;" x1="281.5" x2="275.5" y1="583.8" y2="591.8"/><line style="stroke:#181818;stroke-width:1.0;" x1="281.5" x2="281.5" y1="583.8" y2="591.8"/><line style="stroke:#181818;stroke-width:1.0;" x1="285.5" x2="277.5" y1="581.8" y2="581.8"/></g><!--link checkpoint to checkpoint_batches--><g id="link_checkpoint_checkpoint_batches"><path codeLine="71" d="M499.5,137.5 C499.5,169.81 499.5,195.45 499.5,227.8 " fill="none" id="checkpoint-checkpoint_batches" style="stroke:#181818;stroke-width:1.0;stroke-dasharray:7.0,7.0;"/><line style="stroke:#181818;stroke-width:1.0;" x1="495.5" x2="503.5" y1="133.5" y2="133.5"/><line style="stroke:#181818;stroke-width:1.0;" x1="495.5" x2="503.5" y1="136.5" y2="136.5"/><line style="stroke:#181818;stroke-width:1.0;" x1="499.5" x2="499.5" y1="137.5" y2="129.5"/><line style="stroke:#181818;stroke-width:1.0;" x1="499.5" x2="505.5" y1="227.8" y2="235.8"/><line style="stroke:#181818;stroke-width:1.0;" x1="499.5" x2="493.5" y1="227.8" y2="235.8"/><line style="stroke:#181818;stroke-width:1.0;" x1="499.5" x2="499.5" y1="227.8" y2="235.8"/><line style="stroke:#181818;stroke-width:1.0;" x1="503.5" x2="495.5" y1="225.8" y2="225.8"/></g><!--link host to database--><g id="link_host_database"><path codeLine="73" d="M499.5,540.26 C499.5,559.26 499.5,564.8 499.5,583.8 " fill="none" id="host-database" style="stroke:#181818;stroke-width:1.0;stroke-dasharray:7.0,7.0;"/><line style="stroke:#181818;stroke-width:1.0;" x1="495.5" x2="503.5" y1="536.26" y2="536.26"/><line style="stroke:#181818;stroke-width:1.0;" x1="495.5" x2="503.5" y1="539.26" y2="539.26"/><line style="stroke:#181818;stroke-width:1.0;" x1="499.5" x2="499.5" y1="540.26" y2="532.26"/><line style="stroke:#181818;stroke-width:1.0;" x1="499.5" x2="505.5" y1="583.8" y2="591.8"/><line style="stroke:#181818;stroke-width:1.0;" x1="499.5" x2="493.5" y1="583.8" y2="591.8"/><line style="stroke:#181818;stroke-width:1.0;" x1="499.5" x2="499.5" y1="583.8" y2="591.8"/><line style="stroke:#181818;stroke-width:1.0;" x1="503.5" x2="495.5" y1="581.8" y2="581.8"/></g><!--link checkpoint_batches to host--><rect fill="#DDDDDD" height="28.6211" id="_legend" rx="7.5" ry="7.5" style="stroke:#000000;stroke-width:1.0;" width="140.7168" x="343.7083" y="713.8633"/><text fill="#000000" font-family="sans-serif" font-size="14" lengthAdjust="spacing" textLength="130.7168" x="348.7083" y="733.9707">Crow&#8217;s Foot Notation</text><!--SRC=[fLJBRi8m4BpxA_QC53u08Iwja2gagXTERHKvyKBS1cyQEm8AbVeR_Rr-IHrZYCEpY5mYZTSpi-ErSvoY4d1Nqlpt-qV3aCZ08nbk92d6K1bfbb2Kz8QfWHK3-tL02kZ1UFnm3_s-tOybDoW60xSQHRv8yHdQCeCBun6Qsz8sb9POxxMWi7y7vboRk2f4Y7_jhEYK2hpEo3ikBufsO2ALr9b34w8SkV8BPbdizU7ZY4FruSZADZQbmTbrBhNDlD9j8TVi9PdOsYcmD19rerZZvsHzIN16jkXfr3OL47jRZNAQOVfUa5JDL1owtIViGC9DciLQVjQoThCTl_9KgaVLOiSGjlgVS3UoKWbSsEgSr7Gx2WtncPWpqZSFVrNcXodQ-UC9rtWhUMtmQ0EA34AE4mCqyNUdvou4jxS-IFn5GQNaHuN0DQGqIwJQF06Ee9JJp34SEOTUAzoQjftfIMQsVLNMwsvtlTguOnkF7gfdbBch5031l3CMZA4lERJ8c3i_lxwDFDoxQoPwpgGGg5wZWSkK_G40]--></g></svg>