<svg xmlns="http://www.w3.org/2000/svg" xmlns:xlink="http://www.w3.org/1999/xlink" contentStyleType="text/css" height="762px" preserveAspectRatio="none" style="width:783px;height:762px;background:#FFFFFF;" version="1.1" viewBox="0 0 783 762" width="783px" zoomAndPan="magnify"><defs/><g><!--class project--><g id="elem_project"><rect codeLine="3" fill="#F1F1F1" height="141.1055" id="project" rx="2.5" ry="2.5" style="stroke:#181818;stroke-width:0.5;" width="165.3027" x="199" y="7"/><ellipse cx="256.3911" cy="23" fill="#ADD1B2" rx="11" ry="11" style="stroke:#181818;stroke-width:1.0;"/><path d="M255.2505,23.7969 L255.2505,26.2969 L259.5786,26.2969 L259.5786,25.375 Q259.5786,24.7656 259.813,24.5 Q260.063,24.2344 260.438,24.2344 Q260.813,24.2344 261.0474,24.5 Q261.2817,24.7656 261.2817,25.375 L261.2817,28 L253.2817,28 Q252.6567,28 252.3911,27.7656 Q252.1411,27.5313 252.1411,27.1406 Q252.1411,26.7656 252.4067,26.5313 Q252.6724,26.2969 253.2817,26.2969 L253.5474,26.2969 L253.5474,19.6406 L253.2817,19.6406 Q252.6567,19.6406 252.3911,19.4063 Q252.1411,19.1719 252.1411,18.7813 Q252.1411,18.4063 252.3911,18.1719 Q252.6567,17.9375 253.2817,17.9375 L260.9067,17.9375 L260.9067,20.5313 Q260.9067,21.1406 260.6724,21.4063 Q260.4536,21.6563 260.063,21.6563 Q259.688,21.6563 259.4536,21.4063 Q259.2192,21.1406 259.2192,20.5313 L259.2192,19.6406 L255.2505,19.6406 L255.2505,22.0938 L256.7349,22.0938 Q256.7349,21.4375 256.8599,21.25 Q257.1255,20.8438 257.5942,20.8438 Q257.9692,20.8438 258.2036,21.1094 Q258.438,21.3594 258.438,21.9688 L258.438,23.9375 Q258.438,24.4844 258.313,24.6719 Q258.0474,25.0625 257.5942,25.0625 Q257.1255,25.0625 256.8599,24.6563 Q256.7349,24.4688 256.7349,23.7969 L255.2505,23.7969 Z " fill="#000000"/><text fill="#000000" font-family="sans-serif" font-size="14" lengthAdjust="spacing" textLength="42.0205" x="276.8911" y="28.7969">project</text><line style="stroke:#181818;stroke-width:0.5;" x1="200" x2="363.3027" y1="39" y2="39"/><ellipse cx="210" cy="53.8105" fill="#000000" rx="3" ry="3" style="stroke:#000000;stroke-width:1.0;"/><text fill="#000000" font-family="sans-serif" font-size="14" lengthAdjust="spacing" textLength="139.3027" x="219" y="58.1074">id : UUID &#171;generated&#187;</text><line style="stroke:#181818;stroke-width:1.0;" x1="200" x2="363.3027" y1="65.6211" y2="65.6211"/><ellipse cx="210" cy="80.4316" fill="#000000" rx="3" ry="3" style="stroke:#000000;stroke-width:1.0;"/><text fill="#000000" font-family="sans-serif" font-size="14" lengthAdjust="spacing" textLength="69.2549" x="219" y="84.7285">name : text</text><ellipse cx="210" cy="99.0527" fill="#000000" rx="3" ry="3" style="stroke:#000000;stroke-width:1.0;"/><text fill="#000000" font-family="sans-serif" font-size="14" lengthAdjust="spacing" textLength="72.3652" x="219" y="103.3496">owner : text</text><ellipse cx="210" cy="117.6738" fill="#000000" rx="3" ry="3" style="stroke:#000000;stroke-width:1.0;"/><text fill="#000000" font-family="sans-serif" font-size="14" lengthAdjust="spacing" textLength="85.6133" x="219" y="121.9707">created : date</text><text fill="#000000" font-family="sans-serif" font-size="14" lengthAdjust="spacing" textLength="119.0957" x="219" y="140.5918">last_updated : date</text></g><!--class scope--><g id="elem_scope"><rect codeLine="12" fill="#F1F1F1" height="159.7266" id="scope" rx="2.5" ry="2.5" style="stroke:#181818;stroke-width:0.5;" width="169.9443" x="196.5" y="208"/><ellipse cx="258.543" cy="224" fill="#ADD1B2" rx="11" ry="11" style="stroke:#181818;stroke-width:1.0;"/><path d="M257.4023,224.7969 L257.4023,227.2969 L261.7305,227.2969 L261.7305,226.375 Q261.7305,225.7656 261.9648,225.5 Q262.2148,225.2344 262.5898,225.2344 Q262.9648,225.2344 263.1992,225.5 Q263.4336,225.7656 263.4336,226.375 L263.4336,229 L255.4336,229 Q254.8086,229 254.543,228.7656 Q254.293,228.5313 254.293,228.1406 Q254.293,227.7656 254.5586,227.5313 Q254.8242,227.2969 255.4336,227.2969 L255.6992,227.2969 L255.6992,220.6406 L255.4336,220.6406 Q254.8086,220.6406 254.543,220.4063 Q254.293,220.1719 254.293,219.7813 Q254.293,219.4063 254.543,219.1719 Q254.8086,218.9375 255.4336,218.9375 L263.0586,218.9375 L263.0586,221.5313 Q263.0586,222.1406 262.8242,222.4063 Q262.6055,222.6563 262.2148,222.6563 Q261.8398,222.6563 261.6055,222.4063 Q261.3711,222.1406 261.3711,221.5313 L261.3711,220.6406 L257.4023,220.6406 L257.4023,223.0938 L258.8867,223.0938 Q258.8867,222.4375 259.0117,222.25 Q259.2773,221.8438 259.7461,221.8438 Q260.1211,221.8438 260.3555,222.1094 Q260.5898,222.3594 260.5898,222.9688 L260.5898,224.9375 Q260.5898,225.4844 260.4648,225.6719 Q260.1992,226.0625 259.7461,226.0625 Q259.2773,226.0625 259.0117,225.6563 Q258.8867,225.4688 258.8867,224.7969 L257.4023,224.7969 Z " fill="#000000"/><text fill="#000000" font-family="sans-serif" font-size="14" lengthAdjust="spacing" textLength="37.3584" x="279.043" y="229.7969">scope</text><line style="stroke:#181818;stroke-width:0.5;" x1="197.5" x2="365.4443" y1="240" y2="240"/><ellipse cx="207.5" cy="254.8105" fill="#000000" rx="3" ry="3" style="stroke:#000000;stroke-width:1.0;"/><text fill="#000000" font-family="sans-serif" font-size="14" lengthAdjust="spacing" textLength="139.3027" x="216.5" y="259.1074">id : UUID &#171;generated&#187;</text><line style="stroke:#181818;stroke-width:1.0;" x1="197.5" x2="365.4443" y1="266.6211" y2="266.6211"/><ellipse cx="207.5" cy="281.4316" fill="#000000" rx="3" ry="3" style="stroke:#000000;stroke-width:1.0;"/><text fill="#000000" font-family="sans-serif" font-size="14" lengthAdjust="spacing" textLength="56.0205" x="216.5" y="285.7285">key : text</text><ellipse cx="207.5" cy="300.0527" fill="#000000" rx="3" ry="3" style="stroke:#000000;stroke-width:1.0;"/><text fill="#000000" font-family="sans-serif" font-size="14" lengthAdjust="spacing" textLength="85.6133" x="216.5" y="304.3496">created : date</text><ellipse cx="207.5" cy="318.6738" fill="#000000" rx="3" ry="3" style="stroke:#000000;stroke-width:1.0;"/><text fill="#000000" font-family="sans-serif" font-size="14" lengthAdjust="spacing" textLength="109.751" x="216.5" y="322.9707">finished : boolean</text><ellipse cx="207.5" cy="337.2949" fill="#000000" rx="3" ry="3" style="stroke:#000000;stroke-width:1.0;"/><text fill="#000000" font-family="sans-serif" font-size="14" lengthAdjust="spacing" textLength="60.6963" x="216.5" y="341.5918">type : text</text><ellipse cx="207.5" cy="355.916" fill="#000000" rx="3" ry="3" style="stroke:#000000;stroke-width:1.0;"/><text fill="#000000" font-family="sans-serif" font-size="14" lengthAdjust="spacing" textLength="143.9443" x="216.5" y="360.2129">project_id : UUID &#171;FK&#187;</text></g><!--class item--><g id="elem_item"><rect codeLine="22" fill="#F1F1F1" height="103.8633" id="item" rx="2.5" ry="2.5" style="stroke:#181818;stroke-width:0.5;" width="165.3027" x="195" y="428"/><ellipse cx="260.1772" cy="444" fill="#ADD1B2" rx="11" ry="11" style="stroke:#181818;stroke-width:1.0;"/><path d="M259.0366,444.7969 L259.0366,447.2969 L263.3647,447.2969 L263.3647,446.375 Q263.3647,445.7656 263.5991,445.5 Q263.8491,445.2344 264.2241,445.2344 Q264.5991,445.2344 264.8335,445.5 Q265.0679,445.7656 265.0679,446.375 L265.0679,449 L257.0679,449 Q256.4429,449 256.1772,448.7656 Q255.9272,448.5313 255.9272,448.1406 Q255.9272,447.7656 256.1929,447.5313 Q256.4585,447.2969 257.0679,447.2969 L257.3335,447.2969 L257.3335,440.6406 L257.0679,440.6406 Q256.4429,440.6406 256.1772,440.4063 Q255.9272,440.1719 255.9272,439.7813 Q255.9272,439.4063 256.1772,439.1719 Q256.4429,438.9375 257.0679,438.9375 L264.6929,438.9375 L264.6929,441.5313 Q264.6929,442.1406 264.4585,442.4063 Q264.2397,442.6563 263.8491,442.6563 Q263.4741,442.6563 263.2397,442.4063 Q263.0054,442.1406 263.0054,441.5313 L263.0054,440.6406 L259.0366,440.6406 L259.0366,443.0938 L260.521,443.0938 Q260.521,442.4375 260.646,442.25 Q260.9116,441.8438 261.3804,441.8438 Q261.7554,441.8438 261.9897,442.1094 Q262.2241,442.3594 262.2241,442.9688 L262.2241,444.9375 Q262.2241,445.4844 262.0991,445.6719 Q261.8335,446.0625 261.3804,446.0625 Q260.9116,446.0625 260.646,445.6563 Q260.521,445.4688 260.521,444.7969 L259.0366,444.7969 Z " fill="#000000"/><text fill="#000000" font-family="sans-serif" font-size="14" lengthAdjust="spacing" textLength="26.4482" x="280.6772" y="449.7969">item</text><line style="stroke:#181818;stroke-width:0.5;" x1="196" x2="359.3027" y1="460" y2="460"/><ellipse cx="206" cy="474.8105" fill="#000000" rx="3" ry="3" style="stroke:#000000;stroke-width:1.0;"/><text fill="#000000" font-family="sans-serif" font-size="14" lengthAdjust="spacing" textLength="139.3027" x="215" y="479.1074">id : UUID &#171;generated&#187;</text><line style="stroke:#181818;stroke-width:1.0;" x1="196" x2="359.3027" y1="486.6211" y2="486.6211"/><ellipse cx="206" cy="501.4316" fill="#000000" rx="3" ry="3" style="stroke:#000000;stroke-width:1.0;"/><text fill="#000000" font-family="sans-serif" font-size="14" lengthAdjust="spacing" textLength="71.5859" x="215" y="505.7285">status : text</text><ellipse cx="206" cy="520.0527" fill="#000000" rx="3" ry="3" style="stroke:#000000;stroke-width:1.0;"/><text fill="#000000" font-family="sans-serif" font-size="14" lengthAdjust="spacing" textLength="139.2822" x="215" y="524.3496">scope_id : UUID &#171;FK&#187;</text></g><!--class item_properties--><g id="elem_item_properties"><rect codeLine="29" fill="#F1F1F1" height="103.8633" id="item_properties" rx="2.5" ry="2.5" style="stroke:#181818;stroke-width:0.5;" width="199.5371" x="166.5" y="592"/><ellipse cx="213.7739" cy="608" fill="#ADD1B2" rx="11" ry="11" style="stroke:#181818;stroke-width:1.0;"/><path d="M212.6333,608.7969 L212.6333,611.2969 L216.9614,611.2969 L216.9614,610.375 Q216.9614,609.7656 217.1958,609.5 Q217.4458,609.2344 217.8208,609.2344 Q218.1958,609.2344 218.4302,609.5 Q218.6646,609.7656 218.6646,610.375 L218.6646,613 L210.6646,613 Q210.0396,613 209.7739,612.7656 Q209.5239,612.5313 209.5239,612.1406 Q209.5239,611.7656 209.7896,611.5313 Q210.0552,611.2969 210.6646,611.2969 L210.9302,611.2969 L210.9302,604.6406 L210.6646,604.6406 Q210.0396,604.6406 209.7739,604.4063 Q209.5239,604.1719 209.5239,603.7813 Q209.5239,603.4063 209.7739,603.1719 Q210.0396,602.9375 210.6646,602.9375 L218.2896,602.9375 L218.2896,605.5313 Q218.2896,606.1406 218.0552,606.4063 Q217.8364,606.6563 217.4458,606.6563 Q217.0708,606.6563 216.8364,606.4063 Q216.6021,606.1406 216.6021,605.5313 L216.6021,604.6406 L212.6333,604.6406 L212.6333,607.0938 L214.1177,607.0938 Q214.1177,606.4375 214.2427,606.25 Q214.5083,605.8438 214.9771,605.8438 Q215.3521,605.8438 215.5864,606.1094 Q215.8208,606.3594 215.8208,606.9688 L215.8208,608.9375 Q215.8208,609.4844 215.6958,609.6719 Q215.4302,610.0625 214.9771,610.0625 Q214.5083,610.0625 214.2427,609.6563 Q214.1177,609.4688 214.1177,608.7969 L212.6333,608.7969 Z " fill="#000000"/><text fill="#000000" font-family="sans-serif" font-size="14" lengthAdjust="spacing" textLength="96.4893" x="234.2739" y="613.7969">item_properties</text><line style="stroke:#181818;stroke-width:0.5;" x1="167.5" x2="365.0371" y1="624" y2="624"/><ellipse cx="177.5" cy="638.8105" fill="#000000" rx="3" ry="3" style="stroke:#000000;stroke-width:1.0;"/><text fill="#000000" font-family="sans-serif" font-size="14" lengthAdjust="spacing" textLength="173.5371" x="186.5" y="643.1074">item_id : UUID &#171;generated&#187;</text><ellipse cx="177.5" cy="657.4316" fill="#000000" rx="3" ry="3" style="stroke:#000000;stroke-width:1.0;"/><text fill="#000000" font-family="sans-serif" font-size="14" lengthAdjust="spacing" textLength="141.627" x="186.5" y="661.7285">item_name : text &#171;PK&#187;</text><line style="stroke:#181818;stroke-width:1.0;" x1="167.5" x2="365.0371" y1="669.2422" y2="669.2422"/><text fill="#000000" font-family="sans-serif" font-size="14" lengthAdjust="spacing" textLength="96.4893" x="172.5" y="688.3496">properties : text</text></g><!--class checkpoint--><g id="elem_checkpoint"><rect codeLine="36" fill="#F1F1F1" height="103.8633" id="checkpoint" rx="2.5" ry="2.5" style="stroke:#181818;stroke-width:0.5;" width="166.0684" x="409.5" y="236"/><ellipse cx="454.8188" cy="252" fill="#ADD1B2" rx="11" ry="11" style="stroke:#181818;stroke-width:1.0;"/><path d="M453.6782,252.7969 L453.6782,255.2969 L458.0063,255.2969 L458.0063,254.375 Q458.0063,253.7656 458.2407,253.5 Q458.4907,253.2344 458.8657,253.2344 Q459.2407,253.2344 459.4751,253.5 Q459.7095,253.7656 459.7095,254.375 L459.7095,257 L451.7095,257 Q451.0845,257 450.8188,256.7656 Q450.5688,256.5313 450.5688,256.1406 Q450.5688,255.7656 450.8345,255.5313 Q451.1001,255.2969 451.7095,255.2969 L451.9751,255.2969 L451.9751,248.6406 L451.7095,248.6406 Q451.0845,248.6406 450.8188,248.4063 Q450.5688,248.1719 450.5688,247.7813 Q450.5688,247.4063 450.8188,247.1719 Q451.0845,246.9375 451.7095,246.9375 L459.3345,246.9375 L459.3345,249.5313 Q459.3345,250.1406 459.1001,250.4063 Q458.8813,250.6563 458.4907,250.6563 Q458.1157,250.6563 457.8813,250.4063 Q457.647,250.1406 457.647,249.5313 L457.647,248.6406 L453.6782,248.6406 L453.6782,251.0938 L455.1626,251.0938 Q455.1626,250.4375 455.2876,250.25 Q455.5532,249.8438 456.022,249.8438 Q456.397,249.8438 456.6313,250.1094 Q456.8657,250.3594 456.8657,250.9688 L456.8657,252.9375 Q456.8657,253.4844 456.7407,253.6719 Q456.4751,254.0625 456.022,254.0625 Q455.5532,254.0625 455.2876,253.6563 Q455.1626,253.4688 455.1626,252.7969 L453.6782,252.7969 Z " fill="#000000"/><text fill="#000000" font-family="sans-serif" font-size="14" lengthAdjust="spacing" textLength="66.9307" x="475.3188" y="257.7969">checkpoint</text><line style="stroke:#181818;stroke-width:0.5;" x1="410.5" x2="574.5684" y1="268" y2="268"/><ellipse cx="420.5" cy="282.8105" fill="#000000" rx="3" ry="3" style="stroke:#000000;stroke-width:1.0;"/><text fill="#000000" font-family="sans-serif" font-size="14" lengthAdjust="spacing" textLength="139.3027" x="429.5" y="287.1074">id : UUID &#171;generated&#187;</text><line style="stroke:#181818;stroke-width:1.0;" x1="410.5" x2="574.5684" y1="294.6211" y2="294.6211"/><ellipse cx="420.5" cy="309.4316" fill="#000000" rx="3" ry="3" style="stroke:#000000;stroke-width:1.0;"/><text fill="#000000" font-family="sans-serif" font-size="14" lengthAdjust="spacing" textLength="121.4063" x="429.5" y="313.7285">batch_size : integer</text><ellipse cx="420.5" cy="328.0527" fill="#000000" rx="3" ry="3" style="stroke:#000000;stroke-width:1.0;"/><text fill="#000000" font-family="sans-serif" font-size="14" lengthAdjust="spacing" textLength="140.0684" x="429.5" y="332.3496">scope_id : UUID &#171;PK&#187;</text></g><!--class checkpoint_batches--><g id="elem_checkpoint_batches"><rect codeLine="43" fill="#F1F1F1" height="103.8633" id="checkpoint_batches" rx="2.5" ry="2.5" style="stroke:#181818;stroke-width:0.5;" width="194.8545" x="400" y="428"/><ellipse cx="432.5966" cy="444" fill="#ADD1B2" rx="11" ry="11" style="stroke:#181818;stroke-width:1.0;"/><path d="M431.456,444.7969 L431.456,447.2969 L435.7841,447.2969 L435.7841,446.375 Q435.7841,445.7656 436.0185,445.5 Q436.2685,445.2344 436.6435,445.2344 Q437.0185,445.2344 437.2528,445.5 Q437.4872,445.7656 437.4872,446.375 L437.4872,449 L429.4872,449 Q428.8622,449 428.5966,448.7656 Q428.3466,448.5313 428.3466,448.1406 Q428.3466,447.7656 428.6122,447.5313 Q428.8778,447.2969 429.4872,447.2969 L429.7528,447.2969 L429.7528,440.6406 L429.4872,440.6406 Q428.8622,440.6406 428.5966,440.4063 Q428.3466,440.1719 428.3466,439.7813 Q428.3466,439.4063 428.5966,439.1719 Q428.8622,438.9375 429.4872,438.9375 L437.1122,438.9375 L437.1122,441.5313 Q437.1122,442.1406 436.8778,442.4063 Q436.6591,442.6563 436.2685,442.6563 Q435.8935,442.6563 435.6591,442.4063 Q435.4247,442.1406 435.4247,441.5313 L435.4247,440.6406 L431.456,440.6406 L431.456,443.0938 L432.9403,443.0938 Q432.9403,442.4375 433.0653,442.25 Q433.331,441.8438 433.7997,441.8438 Q434.1747,441.8438 434.4091,442.1094 Q434.6435,442.3594 434.6435,442.9688 L434.6435,444.9375 Q434.6435,445.4844 434.5185,445.6719 Q434.2528,446.0625 433.7997,446.0625 Q433.331,446.0625 433.0653,445.6563 Q432.9403,445.4688 432.9403,444.7969 L431.456,444.7969 Z " fill="#000000"/><text fill="#000000" font-family="sans-serif" font-size="14" lengthAdjust="spacing" textLength="123.751" x="450.5069" y="449.7969">checkpoint_batches</text><line style="stroke:#181818;stroke-width:0.5;" x1="401" x2="593.8545" y1="460" y2="460"/><ellipse cx="411" cy="474.8105" fill="#000000" rx="3" ry="3" style="stroke:#000000;stroke-width:1.0;"/><text fill="#000000" font-family="sans-serif" font-size="14" lengthAdjust="spacing" textLength="139.3027" x="420" y="479.1074">id : UUID &#171;generated&#187;</text><line style="stroke:#181818;stroke-width:1.0;" x1="401" x2="593.8545" y1="486.6211" y2="486.6211"/><ellipse cx="411" cy="501.4316" fill="#000000" rx="3" ry="3" style="stroke:#000000;stroke-width:1.0;"/><text fill="#000000" font-family="sans-serif" font-size="14" lengthAdjust="spacing" textLength="113.6406" x="420" y="505.7285">batch_index : long</text><ellipse cx="411" cy="520.0527" fill="#000000" rx="3" ry="3" style="stroke:#000000;stroke-width:1.0;"/><text fill="#000000" font-family="sans-serif" font-size="14" lengthAdjust="spacing" textLength="168.8545" x="420" y="524.3496">checkpoint_id : UUID &#171;FK&#187;</text></g><!--class host--><g id="elem_host"><rect codeLine="50" fill="#F1F1F1" height="103.8633" id="host" rx="2.5" ry="2.5" style="stroke:#181818;stroke-width:0.5;" width="165.3027" x="611" y="25.5"/><ellipse cx="676.1704" cy="41.5" fill="#ADD1B2" rx="11" ry="11" style="stroke:#181818;stroke-width:1.0;"/><path d="M675.0298,42.2969 L675.0298,44.7969 L679.3579,44.7969 L679.3579,43.875 Q679.3579,43.2656 679.5923,43 Q679.8423,42.7344 680.2173,42.7344 Q680.5923,42.7344 680.8267,43 Q681.061,43.2656 681.061,43.875 L681.061,46.5 L673.061,46.5 Q672.436,46.5 672.1704,46.2656 Q671.9204,46.0313 671.9204,45.6406 Q671.9204,45.2656 672.186,45.0313 Q672.4517,44.7969 673.061,44.7969 L673.3267,44.7969 L673.3267,38.1406 L673.061,38.1406 Q672.436,38.1406 672.1704,37.9063 Q671.9204,37.6719 671.9204,37.2813 Q671.9204,36.9063 672.1704,36.6719 Q672.436,36.4375 673.061,36.4375 L680.686,36.4375 L680.686,39.0313 Q680.686,39.6406 680.4517,39.9063 Q680.2329,40.1563 679.8423,40.1563 Q679.4673,40.1563 679.2329,39.9063 Q678.9985,39.6406 678.9985,39.0313 L678.9985,38.1406 L675.0298,38.1406 L675.0298,40.5938 L676.5142,40.5938 Q676.5142,39.9375 676.6392,39.75 Q676.9048,39.3438 677.3735,39.3438 Q677.7485,39.3438 677.9829,39.6094 Q678.2173,39.8594 678.2173,40.4688 L678.2173,42.4375 Q678.2173,42.9844 678.0923,43.1719 Q677.8267,43.5625 677.3735,43.5625 Q676.9048,43.5625 676.6392,43.1563 Q676.5142,42.9688 676.5142,42.2969 L675.0298,42.2969 Z " fill="#000000"/><text fill="#000000" font-family="sans-serif" font-size="14" lengthAdjust="spacing" textLength="26.4619" x="696.6704" y="47.2969">host</text><line style="stroke:#181818;stroke-width:0.5;" x1="612" x2="775.3027" y1="57.5" y2="57.5"/><ellipse cx="622" cy="72.3105" fill="#000000" rx="3" ry="3" style="stroke:#000000;stroke-width:1.0;"/><text fill="#000000" font-family="sans-serif" font-size="14" lengthAdjust="spacing" textLength="139.3027" x="631" y="76.6074">id : UUID &#171;generated&#187;</text><line style="stroke:#181818;stroke-width:1.0;" x1="612" x2="775.3027" y1="84.1211" y2="84.1211"/><ellipse cx="622" cy="98.9316" fill="#000000" rx="3" ry="3" style="stroke:#000000;stroke-width:1.0;"/><text fill="#000000" font-family="sans-serif" font-size="14" lengthAdjust="spacing" textLength="69.2549" x="631" y="103.2285">name : text</text><ellipse cx="622" cy="117.5527" fill="#000000" rx="3" ry="3" style="stroke:#000000;stroke-width:1.0;"/><text fill="#000000" font-family="sans-serif" font-size="14" lengthAdjust="spacing" textLength="49.793" x="631" y="121.8496">url : text</text></g><!--class database--><g id="elem_database"><rect codeLine="57" fill="#F1F1F1" height="103.8633" id="database" rx="2.5" ry="2.5" style="stroke:#181818;stroke-width:0.5;" width="165.3027" x="611" y="236"/><ellipse cx="660.5981" cy="252" fill="#ADD1B2" rx="11" ry="11" style="stroke:#181818;stroke-width:1.0;"/><path d="M659.4575,252.7969 L659.4575,255.2969 L663.7856,255.2969 L663.7856,254.375 Q663.7856,253.7656 664.02,253.5 Q664.27,253.2344 664.645,253.2344 Q665.02,253.2344 665.2544,253.5 Q665.4888,253.7656 665.4888,254.375 L665.4888,257 L657.4888,257 Q656.8638,257 656.5981,256.7656 Q656.3481,256.5313 656.3481,256.1406 Q656.3481,255.7656 656.6138,255.5313 Q656.8794,255.2969 657.4888,255.2969 L657.7544,255.2969 L657.7544,248.6406 L657.4888,248.6406 Q656.8638,248.6406 656.5981,248.4063 Q656.3481,248.1719 656.3481,247.7813 Q656.3481,247.4063 656.5981,247.1719 Q656.8638,246.9375 657.4888,246.9375 L665.1138,246.9375 L665.1138,249.5313 Q665.1138,250.1406 664.8794,250.4063 Q664.6606,250.6563 664.27,250.6563 Q663.895,250.6563 663.6606,250.4063 Q663.4263,250.1406 663.4263,249.5313 L663.4263,248.6406 L659.4575,248.6406 L659.4575,251.0938 L660.9419,251.0938 Q660.9419,250.4375 661.0669,250.25 Q661.3325,249.8438 661.8013,249.8438 Q662.1763,249.8438 662.4106,250.1094 Q662.645,250.3594 662.645,250.9688 L662.645,252.9375 Q662.645,253.4844 662.52,253.6719 Q662.2544,254.0625 661.8013,254.0625 Q661.3325,254.0625 661.0669,253.6563 Q660.9419,253.4688 660.9419,252.7969 L659.4575,252.7969 Z " fill="#000000"/><text fill="#000000" font-family="sans-serif" font-size="14" lengthAdjust="spacing" textLength="57.6064" x="681.0981" y="257.7969">database</text><line style="stroke:#181818;stroke-width:0.5;" x1="612" x2="775.3027" y1="268" y2="268"/><ellipse cx="622" cy="282.8105" fill="#000000" rx="3" ry="3" style="stroke:#000000;stroke-width:1.0;"/><text fill="#000000" font-family="sans-serif" font-size="14" lengthAdjust="spacing" textLength="139.3027" x="631" y="287.1074">id : UUID &#171;generated&#187;</text><line style="stroke:#181818;stroke-width:1.0;" x1="612" x2="775.3027" y1="294.6211" y2="294.6211"/><ellipse cx="622" cy="309.4316" fill="#000000" rx="3" ry="3" style="stroke:#000000;stroke-width:1.0;"/><text fill="#000000" font-family="sans-serif" font-size="14" lengthAdjust="spacing" textLength="69.2549" x="631" y="313.7285">name : text</text><ellipse cx="622" cy="328.0527" fill="#000000" rx="3" ry="3" style="stroke:#000000;stroke-width:1.0;"/><text fill="#000000" font-family="sans-serif" font-size="14" lengthAdjust="spacing" textLength="128.3857" x="631" y="332.3496">host_id : UUID &#171;FK&#187;</text></g><g id="elem_GMN10"><path d="M6,265.5 L6,310.082 A0,0 0 0 0 6,310.082 L160.7007,310.082 A0,0 0 0 0 160.7007,310.082 L160.7007,292 L196.47,288 L160.7007,284 L160.7007,275.5 L150.7007,265.5 L6,265.5 A0,0 0 0 0 6,265.5 " fill="#FEFFDD" style="stroke:#181818;stroke-width:0.5;"/><path d="M150.7007,265.5 L150.7007,275.5 L160.7007,275.5 L150.7007,265.5 " fill="#FEFFDD" style="stroke:#181818;stroke-width:0.5;"/><text fill="#000000" font-family="sans-serif" font-size="13" lengthAdjust="spacing" textLength="105.5107" x="12" y="284.5283">key and project_id</text><text fill="#000000" font-family="sans-serif" font-size="13" lengthAdjust="spacing" textLength="130.0889" x="15.6118" y="301.8193">unique as combination</text></g><g id="elem_GMN13"><path d="M402,621.5 L402,666.082 A0,0 0 0 0 402,666.082 L605.1333,666.082 A0,0 0 0 0 605.1333,666.082 L605.1333,631.5 L595.1333,621.5 L506.7,621.5 L499.4,532.26 L498.7,621.5 L402,621.5 A0,0 0 0 0 402,621.5 " fill="#FEFFDD" style="stroke:#181818;stroke-width:0.5;"/><path d="M595.1333,621.5 L595.1333,631.5 L605.1333,631.5 L595.1333,621.5 " fill="#FEFFDD" style="stroke:#181818;stroke-width:0.5;"/><text fill="#000000" font-family="sans-serif" font-size="13" lengthAdjust="spacing" textLength="178.5215" x="408" y="640.5283">batch_index and checkpoint_id</text><text fill="#000000" font-family="sans-serif" font-size="13" lengthAdjust="spacing" textLength="130.0889" x="411.6118" y="657.8193">unique as combination</text></g><g id="elem_GMN16"><path d="M485,64 L485,91.291 A0,0 0 0 0 485,91.291 L576.0972,91.291 A0,0 0 0 0 576.0972,91.291 L576.0972,82 L610.9,77.5 L576.0972,74 L576.0972,74 L566.0972,64 L485,64 A0,0 0 0 0 485,64 " fill="#FEFFDD" style="stroke:#181818;stroke-width:0.5;"/><path d="M566.0972,64 L566.0972,74 L576.0972,74 L566.0972,64 " fill="#FEFFDD" style="stroke:#181818;stroke-width:0.5;"/><text fill="#000000" font-family="sans-serif" font-size="13" lengthAdjust="spacing" textLength="70.0972" x="491" y="83.0283">url is unique</text></g><!--link project to scope--><g id="link_project_scope"><path codeLine="68" d="M281.5,156.22 C281.5,175.4 281.5,180.33 281.5,199.99 " fill="none" id="project-scope" style="stroke:#181818;stroke-width:1.0;stroke-dasharray:7.0,7.0;"/><line style="stroke:#181818;stroke-width:1.0;" x1="277.5" x2="285.5" y1="152.22" y2="152.22"/><line style="stroke:#181818;stroke-width:1.0;" x1="277.5" x2="285.5" y1="155.22" y2="155.22"/><line style="stroke:#181818;stroke-width:1.0;" x1="281.5" x2="281.5" y1="156.22" y2="148.22"/><line style="stroke:#181818;stroke-width:1.0;" x1="281.5" x2="287.5" y1="199.99" y2="207.99"/><line style="stroke:#181818;stroke-width:1.0;" x1="281.5" x2="275.5" y1="199.99" y2="207.99"/><line style="stroke:#181818;stroke-width:1.0;" x1="281.5" x2="281.5" y1="199.99" y2="207.99"/><line style="stroke:#181818;stroke-width:1.0;" x1="285.5" x2="277.5" y1="197.99" y2="197.99"/></g><!--link scope to item--><g id="link_scope_item"><path codeLine="69" d="M279.6634,376.1983 C279.2434,396.3583 279.1257,401.5017 278.7457,419.8417 " fill="none" id="scope-item" style="stroke:#181818;stroke-width:1.0;stroke-dasharray:7.0,7.0;"/><line style="stroke:#181818;stroke-width:1.0;" x1="275.7476" x2="283.7458" y1="372.1158" y2="372.2824"/><line style="stroke:#181818;stroke-width:1.0;" x1="275.6851" x2="283.6833" y1="375.1152" y2="375.2818"/><line style="stroke:#181818;stroke-width:1.0;" x1="279.6634" x2="279.83" y1="376.1983" y2="368.2"/><line style="stroke:#181818;stroke-width:1.0;" x1="278.7457" x2="284.5787" y1="419.8417" y2="427.9643"/><line style="stroke:#181818;stroke-width:1.0;" x1="278.7457" x2="272.5813" y1="419.8417" y2="427.7157"/><line style="stroke:#181818;stroke-width:1.0;" x1="278.7457" x2="278.58" y1="419.8417" y2="427.84"/><line style="stroke:#181818;stroke-width:1.0;" x1="282.7863" x2="274.788" y1="417.925" y2="417.7593"/></g><!--link item to item_properties--><g id="link_item_item_properties"><path codeLine="70" d="M273.4781,540.2416 C272.1881,559.2416 271.8119,564.8184 270.5219,583.8184 " fill="none" id="item-item_properties" style="stroke:#181818;stroke-width:1.0;stroke-dasharray:7.0,7.0;"/><line style="stroke:#181818;stroke-width:1.0;" x1="269.7582" x2="277.7399" y1="535.9799" y2="536.5218"/><line style="stroke:#181818;stroke-width:1.0;" x1="269.555" x2="277.5366" y1="538.973" y2="539.5149"/><line style="stroke:#181818;stroke-width:1.0;" x1="273.4781" x2="274.02" y1="540.2416" y2="532.26"/><line style="stroke:#181818;stroke-width:1.0;" x1="270.5219" x2="275.9662" y1="583.8184" y2="592.2064"/><line style="stroke:#181818;stroke-width:1.0;" x1="270.5219" x2="263.9938" y1="583.8184" y2="591.3936"/><line style="stroke:#181818;stroke-width:1.0;" x1="270.5219" x2="269.98" y1="583.8184" y2="591.8"/><line style="stroke:#181818;stroke-width:1.0;" x1="274.6482" x2="266.6666" y1="582.0939" y2="581.552"/></g><!--link scope to checkpoint--><g id="link_scope_checkpoint"><path codeLine="72" d="M374.81,288 C388.88,288 386.96,288 401.03,288 " fill="none" id="scope-checkpoint" style="stroke:#181818;stroke-width:1.0;stroke-dasharray:7.0,7.0;"/><line style="stroke:#181818;stroke-width:1.0;" x1="370.81" x2="370.81" y1="292" y2="284"/><line style="stroke:#181818;stroke-width:1.0;" x1="373.81" x2="373.81" y1="292" y2="284"/><line style="stroke:#181818;stroke-width:1.0;" x1="374.81" x2="366.81" y1="288" y2="288"/><line style="stroke:#181818;stroke-width:1.0;" x1="405.03" x2="405.03" y1="284" y2="292"/><line style="stroke:#181818;stroke-width:1.0;" x1="402.03" x2="402.03" y1="284" y2="292"/><line style="stroke:#181818;stroke-width:1.0;" x1="401.03" x2="409.03" y1="288" y2="288"/></g><!--link checkpoint to checkpoint_batches--><g id="link_checkpoint_checkpoint_batches"><path codeLine="74" d="M494.0592,348.1673 C494.7692,375.3073 495.2309,392.5827 495.9409,419.7427 " fill="none" id="checkpoint-checkpoint_batches" style="stroke:#181818;stroke-width:1.0;stroke-dasharray:7.0,7.0;"/><line style="stroke:#181818;stroke-width:1.0;" x1="489.956" x2="497.9532" y1="344.2732" y2="344.064"/><line style="stroke:#181818;stroke-width:1.0;" x1="490.0344" x2="498.0317" y1="347.2722" y2="347.063"/><line style="stroke:#181818;stroke-width:1.0;" x1="494.0592" x2="493.85" y1="348.1673" y2="340.17"/><line style="stroke:#181818;stroke-width:1.0;" x1="495.9409" x2="502.148" y1="419.7427" y2="427.5832"/><line style="stroke:#181818;stroke-width:1.0;" x1="495.9409" x2="490.152" y1="419.7427" y2="427.8968"/><line style="stroke:#181818;stroke-width:1.0;" x1="495.9409" x2="496.15" y1="419.7427" y2="427.74"/><line style="stroke:#181818;stroke-width:1.0;" x1="499.8873" x2="491.89" y1="417.6389" y2="417.8479"/></g><!--link host to database--><g id="link_host_database"><path codeLine="76" d="M693.5,137.5 C693.5,169.81 693.5,195.45 693.5,227.8 " fill="none" id="host-database" style="stroke:#181818;stroke-width:1.0;stroke-dasharray:7.0,7.0;"/><line style="stroke:#181818;stroke-width:1.0;" x1="689.5" x2="697.5" y1="133.5" y2="133.5"/><line style="stroke:#181818;stroke-width:1.0;" x1="689.5" x2="697.5" y1="136.5" y2="136.5"/><line style="stroke:#181818;stroke-width:1.0;" x1="693.5" x2="693.5" y1="137.5" y2="129.5"/><line style="stroke:#181818;stroke-width:1.0;" x1="693.5" x2="699.5" y1="227.8" y2="235.8"/><line style="stroke:#181818;stroke-width:1.0;" x1="693.5" x2="687.5" y1="227.8" y2="235.8"/><line style="stroke:#181818;stroke-width:1.0;" x1="693.5" x2="693.5" y1="227.8" y2="235.8"/><line style="stroke:#181818;stroke-width:1.0;" x1="697.5" x2="689.5" y1="225.8" y2="225.8"/></g><rect fill="#DDDDDD" height="28.6211" id="_legend" rx="7.5" ry="7.5" style="stroke:#000000;stroke-width:1.0;" width="140.7168" x="314.293" y="713.8633"/><text fill="#000000" font-family="sans-serif" font-size="14" lengthAdjust="spacing" textLength="130.7168" x="319.293" y="733.9707">Crow&#8217;s Foot Notation</text><!--SRC=[fLH1Ri8m4Bpx5RvLGWeFG8XBAwGAgUB2gQqY9rc8I-9Duus0aahzHh_NbzGnfd4AXI9oYJJUtPbPxpg31QY4tvQu-lhur7oCIFm1IP14nHWeahJXHOal41FVCcw-7fS97_3PxFwE3uSc7qf1a8n6zZG8N90IEPWmWZKv15Scj0l59JIv1apCtuAPq1HMHUBZxpzIT8m5N2Pa2Pkpf3q-bqhgrA8HOWP2kGFQ5Bzyk7Q4FljuOcXRcP8WlqobDZslT9V8cZr74nev1PGaGRUC3NwAreLuTsI2ffEkAA-mazKonod4omAbkd0g8a5n6chvrl2QR3D_vPzkfrstBMTeo_Y6_yyjLG9h4vsXMkm7eYryejafwgjNe2gpmrwQAHIHq71jyKRWKGCA2NW6S-8uTniqi6iXpEvxq_oaUANaQmLSQ1vZ7acrUmXiWGY9C6zA7Bc8GQUxJTrkKq-NtckpBHxOBadj4XZRFpzrtU_Nsvq1jhFXe6QOcTqv3_0MWxNXTUqfOyoROvTwQ8ungykTxs-BiHilENXCPPA0UWv6rWNx1W00]--></g></svg>