<svg xmlns="http://www.w3.org/2000/svg" xmlns:xlink="http://www.w3.org/1999/xlink" contentStyleType="text/css" height="617px" preserveAspectRatio="none" style="width:609px;height:617px;background:#FFFFFF;" version="1.1" viewBox="0 0 609 617" width="609px" zoomAndPan="magnify"><defs/><g><!--class project--><g id="elem_project"><rect codeLine="3" fill="#F1F1F1" height="141.1055" id="project" rx="2.5" ry="2.5" style="stroke:#181818;stroke-width:0.5;" width="165.3027" x="210" y="7"/><ellipse cx="267.3911" cy="23" fill="#ADD1B2" rx="11" ry="11" style="stroke:#181818;stroke-width:1.0;"/><path d="M266.2505,23.7969 L266.2505,26.2969 L270.5786,26.2969 L270.5786,25.375 Q270.5786,24.7656 270.813,24.5 Q271.063,24.2344 271.438,24.2344 Q271.813,24.2344 272.0474,24.5 Q272.2817,24.7656 272.2817,25.375 L272.2817,28 L264.2817,28 Q263.6567,28 263.3911,27.7656 Q263.1411,27.5313 263.1411,27.1406 Q263.1411,26.7656 263.4067,26.5313 Q263.6724,26.2969 264.2817,26.2969 L264.5474,26.2969 L264.5474,19.6406 L264.2817,19.6406 Q263.6567,19.6406 263.3911,19.4063 Q263.1411,19.1719 263.1411,18.7813 Q263.1411,18.4063 263.3911,18.1719 Q263.6567,17.9375 264.2817,17.9375 L271.9067,17.9375 L271.9067,20.5313 Q271.9067,21.1406 271.6724,21.4063 Q271.4536,21.6563 271.063,21.6563 Q270.688,21.6563 270.4536,21.4063 Q270.2192,21.1406 270.2192,20.5313 L270.2192,19.6406 L266.2505,19.6406 L266.2505,22.0938 L267.7349,22.0938 Q267.7349,21.4375 267.8599,21.25 Q268.1255,20.8438 268.5942,20.8438 Q268.9692,20.8438 269.2036,21.1094 Q269.438,21.3594 269.438,21.9688 L269.438,23.9375 Q269.438,24.4844 269.313,24.6719 Q269.0474,25.0625 268.5942,25.0625 Q268.1255,25.0625 267.8599,24.6563 Q267.7349,24.4688 267.7349,23.7969 L266.2505,23.7969 Z " fill="#000000"/><text fill="#000000" font-family="sans-serif" font-size="14" lengthAdjust="spacing" textLength="42.0205" x="287.8911" y="28.7969">project</text><line style="stroke:#181818;stroke-width:0.5;" x1="211" x2="374.3027" y1="39" y2="39"/><ellipse cx="221" cy="53.8105" fill="#000000" rx="3" ry="3" style="stroke:#000000;stroke-width:1.0;"/><text fill="#000000" font-family="sans-serif" font-size="14" lengthAdjust="spacing" textLength="139.3027" x="230" y="58.1074">id : UUID &#171;generated&#187;</text><line style="stroke:#181818;stroke-width:1.0;" x1="211" x2="374.3027" y1="65.6211" y2="65.6211"/><ellipse cx="221" cy="80.4316" fill="#000000" rx="3" ry="3" style="stroke:#000000;stroke-width:1.0;"/><text fill="#000000" font-family="sans-serif" font-size="14" lengthAdjust="spacing" textLength="69.2549" x="230" y="84.7285">name : text</text><ellipse cx="221" cy="99.0527" fill="#000000" rx="3" ry="3" style="stroke:#000000;stroke-width:1.0;"/><text fill="#000000" font-family="sans-serif" font-size="14" lengthAdjust="spacing" textLength="72.3652" x="230" y="103.3496">owner : text</text><ellipse cx="221" cy="117.6738" fill="#000000" rx="3" ry="3" style="stroke:#000000;stroke-width:1.0;"/><text fill="#000000" font-family="sans-serif" font-size="14" lengthAdjust="spacing" textLength="85.6133" x="230" y="121.9707">created : date</text><text fill="#000000" font-family="sans-serif" font-size="14" lengthAdjust="spacing" textLength="119.0957" x="230" y="140.5918">last_updated : date</text></g><!--class scope--><g id="elem_scope"><rect codeLine="12" fill="#F1F1F1" height="159.7266" id="scope" rx="2.5" ry="2.5" style="stroke:#181818;stroke-width:0.5;" width="169.9443" x="207.5" y="208"/><ellipse cx="269.543" cy="224" fill="#ADD1B2" rx="11" ry="11" style="stroke:#181818;stroke-width:1.0;"/><path d="M268.4023,224.7969 L268.4023,227.2969 L272.7305,227.2969 L272.7305,226.375 Q272.7305,225.7656 272.9648,225.5 Q273.2148,225.2344 273.5898,225.2344 Q273.9648,225.2344 274.1992,225.5 Q274.4336,225.7656 274.4336,226.375 L274.4336,229 L266.4336,229 Q265.8086,229 265.543,228.7656 Q265.293,228.5313 265.293,228.1406 Q265.293,227.7656 265.5586,227.5313 Q265.8242,227.2969 266.4336,227.2969 L266.6992,227.2969 L266.6992,220.6406 L266.4336,220.6406 Q265.8086,220.6406 265.543,220.4063 Q265.293,220.1719 265.293,219.7813 Q265.293,219.4063 265.543,219.1719 Q265.8086,218.9375 266.4336,218.9375 L274.0586,218.9375 L274.0586,221.5313 Q274.0586,222.1406 273.8242,222.4063 Q273.6055,222.6563 273.2148,222.6563 Q272.8398,222.6563 272.6055,222.4063 Q272.3711,222.1406 272.3711,221.5313 L272.3711,220.6406 L268.4023,220.6406 L268.4023,223.0938 L269.8867,223.0938 Q269.8867,222.4375 270.0117,222.25 Q270.2773,221.8438 270.7461,221.8438 Q271.1211,221.8438 271.3555,222.1094 Q271.5898,222.3594 271.5898,222.9688 L271.5898,224.9375 Q271.5898,225.4844 271.4648,225.6719 Q271.1992,226.0625 270.7461,226.0625 Q270.2773,226.0625 270.0117,225.6563 Q269.8867,225.4688 269.8867,224.7969 L268.4023,224.7969 Z " fill="#000000"/><text fill="#000000" font-family="sans-serif" font-size="14" lengthAdjust="spacing" textLength="37.3584" x="290.043" y="229.7969">scope</text><line style="stroke:#181818;stroke-width:0.5;" x1="208.5" x2="376.4443" y1="240" y2="240"/><ellipse cx="218.5" cy="254.8105" fill="#000000" rx="3" ry="3" style="stroke:#000000;stroke-width:1.0;"/><text fill="#000000" font-family="sans-serif" font-size="14" lengthAdjust="spacing" textLength="139.3027" x="227.5" y="259.1074">id : UUID &#171;generated&#187;</text><line style="stroke:#181818;stroke-width:1.0;" x1="208.5" x2="376.4443" y1="266.6211" y2="266.6211"/><ellipse cx="218.5" cy="281.4316" fill="#000000" rx="3" ry="3" style="stroke:#000000;stroke-width:1.0;"/><text fill="#000000" font-family="sans-serif" font-size="14" lengthAdjust="spacing" textLength="56.0205" x="227.5" y="285.7285">key : text</text><ellipse cx="218.5" cy="300.0527" fill="#000000" rx="3" ry="3" style="stroke:#000000;stroke-width:1.0;"/><text fill="#000000" font-family="sans-serif" font-size="14" lengthAdjust="spacing" textLength="85.6133" x="227.5" y="304.3496">created : date</text><ellipse cx="218.5" cy="318.6738" fill="#000000" rx="3" ry="3" style="stroke:#000000;stroke-width:1.0;"/><text fill="#000000" font-family="sans-serif" font-size="14" lengthAdjust="spacing" textLength="109.751" x="227.5" y="322.9707">finished : boolean</text><ellipse cx="218.5" cy="337.2949" fill="#000000" rx="3" ry="3" style="stroke:#000000;stroke-width:1.0;"/><text fill="#000000" font-family="sans-serif" font-size="14" lengthAdjust="spacing" textLength="111.3027" x="227.5" y="341.5918">external : boolean</text><ellipse cx="218.5" cy="355.916" fill="#000000" rx="3" ry="3" style="stroke:#000000;stroke-width:1.0;"/><text fill="#000000" font-family="sans-serif" font-size="14" lengthAdjust="spacing" textLength="143.9443" x="227.5" y="360.2129">project_id : UUID &#171;FK&#187;</text></g><!--class item--><g id="elem_item"><rect codeLine="22" fill="#F1F1F1" height="122.4844" id="item" rx="2.5" ry="2.5" style="stroke:#181818;stroke-width:0.5;" width="165.3027" x="208" y="428"/><ellipse cx="273.1772" cy="444" fill="#ADD1B2" rx="11" ry="11" style="stroke:#181818;stroke-width:1.0;"/><path d="M272.0366,444.7969 L272.0366,447.2969 L276.3647,447.2969 L276.3647,446.375 Q276.3647,445.7656 276.5991,445.5 Q276.8491,445.2344 277.2241,445.2344 Q277.5991,445.2344 277.8335,445.5 Q278.0679,445.7656 278.0679,446.375 L278.0679,449 L270.0679,449 Q269.4429,449 269.1772,448.7656 Q268.9272,448.5313 268.9272,448.1406 Q268.9272,447.7656 269.1929,447.5313 Q269.4585,447.2969 270.0679,447.2969 L270.3335,447.2969 L270.3335,440.6406 L270.0679,440.6406 Q269.4429,440.6406 269.1772,440.4063 Q268.9272,440.1719 268.9272,439.7813 Q268.9272,439.4063 269.1772,439.1719 Q269.4429,438.9375 270.0679,438.9375 L277.6929,438.9375 L277.6929,441.5313 Q277.6929,442.1406 277.4585,442.4063 Q277.2397,442.6563 276.8491,442.6563 Q276.4741,442.6563 276.2397,442.4063 Q276.0054,442.1406 276.0054,441.5313 L276.0054,440.6406 L272.0366,440.6406 L272.0366,443.0938 L273.521,443.0938 Q273.521,442.4375 273.646,442.25 Q273.9116,441.8438 274.3804,441.8438 Q274.7554,441.8438 274.9897,442.1094 Q275.2241,442.3594 275.2241,442.9688 L275.2241,444.9375 Q275.2241,445.4844 275.0991,445.6719 Q274.8335,446.0625 274.3804,446.0625 Q273.9116,446.0625 273.646,445.6563 Q273.521,445.4688 273.521,444.7969 L272.0366,444.7969 Z " fill="#000000"/><text fill="#000000" font-family="sans-serif" font-size="14" lengthAdjust="spacing" textLength="26.4482" x="293.6772" y="449.7969">item</text><line style="stroke:#181818;stroke-width:0.5;" x1="209" x2="372.3027" y1="460" y2="460"/><ellipse cx="219" cy="474.8105" fill="#000000" rx="3" ry="3" style="stroke:#000000;stroke-width:1.0;"/><text fill="#000000" font-family="sans-serif" font-size="14" lengthAdjust="spacing" textLength="139.3027" x="228" y="479.1074">id : UUID &#171;generated&#187;</text><line style="stroke:#181818;stroke-width:1.0;" x1="209" x2="372.3027" y1="486.6211" y2="486.6211"/><ellipse cx="219" cy="501.4316" fill="#000000" rx="3" ry="3" style="stroke:#000000;stroke-width:1.0;"/><text fill="#000000" font-family="sans-serif" font-size="14" lengthAdjust="spacing" textLength="71.5859" x="228" y="505.7285">status : text</text><text fill="#000000" font-family="sans-serif" font-size="14" lengthAdjust="spacing" textLength="96.4893" x="228" y="524.3496">properties : text</text><ellipse cx="219" cy="538.6738" fill="#000000" rx="3" ry="3" style="stroke:#000000;stroke-width:1.0;"/><text fill="#000000" font-family="sans-serif" font-size="14" lengthAdjust="spacing" textLength="139.2822" x="228" y="542.9707">scope_id : UUID &#171;FK&#187;</text></g><!--class checkpoint--><g id="elem_checkpoint"><rect codeLine="30" fill="#F1F1F1" height="122.4844" id="checkpoint" rx="2.5" ry="2.5" style="stroke:#181818;stroke-width:0.5;" width="166.0684" x="416.5" y="227"/><ellipse cx="461.8188" cy="243" fill="#ADD1B2" rx="11" ry="11" style="stroke:#181818;stroke-width:1.0;"/><path d="M460.6782,243.7969 L460.6782,246.2969 L465.0063,246.2969 L465.0063,245.375 Q465.0063,244.7656 465.2407,244.5 Q465.4907,244.2344 465.8657,244.2344 Q466.2407,244.2344 466.4751,244.5 Q466.7095,244.7656 466.7095,245.375 L466.7095,248 L458.7095,248 Q458.0845,248 457.8188,247.7656 Q457.5688,247.5313 457.5688,247.1406 Q457.5688,246.7656 457.8345,246.5313 Q458.1001,246.2969 458.7095,246.2969 L458.9751,246.2969 L458.9751,239.6406 L458.7095,239.6406 Q458.0845,239.6406 457.8188,239.4063 Q457.5688,239.1719 457.5688,238.7813 Q457.5688,238.4063 457.8188,238.1719 Q458.0845,237.9375 458.7095,237.9375 L466.3345,237.9375 L466.3345,240.5313 Q466.3345,241.1406 466.1001,241.4063 Q465.8813,241.6563 465.4907,241.6563 Q465.1157,241.6563 464.8813,241.4063 Q464.647,241.1406 464.647,240.5313 L464.647,239.6406 L460.6782,239.6406 L460.6782,242.0938 L462.1626,242.0938 Q462.1626,241.4375 462.2876,241.25 Q462.5532,240.8438 463.022,240.8438 Q463.397,240.8438 463.6313,241.1094 Q463.8657,241.3594 463.8657,241.9688 L463.8657,243.9375 Q463.8657,244.4844 463.7407,244.6719 Q463.4751,245.0625 463.022,245.0625 Q462.5532,245.0625 462.2876,244.6563 Q462.1626,244.4688 462.1626,243.7969 L460.6782,243.7969 Z " fill="#000000"/><text fill="#000000" font-family="sans-serif" font-size="14" lengthAdjust="spacing" textLength="66.9307" x="482.3188" y="248.7969">checkpoint</text><line style="stroke:#181818;stroke-width:0.5;" x1="417.5" x2="581.5684" y1="259" y2="259"/><ellipse cx="427.5" cy="273.8105" fill="#000000" rx="3" ry="3" style="stroke:#000000;stroke-width:1.0;"/><text fill="#000000" font-family="sans-serif" font-size="14" lengthAdjust="spacing" textLength="139.3027" x="436.5" y="278.1074">id : UUID &#171;generated&#187;</text><line style="stroke:#181818;stroke-width:1.0;" x1="417.5" x2="581.5684" y1="285.6211" y2="285.6211"/><ellipse cx="427.5" cy="300.4316" fill="#000000" rx="3" ry="3" style="stroke:#000000;stroke-width:1.0;"/><text fill="#000000" font-family="sans-serif" font-size="14" lengthAdjust="spacing" textLength="121.4063" x="436.5" y="304.7285">batch_size : integer</text><ellipse cx="427.5" cy="319.0527" fill="#000000" rx="3" ry="3" style="stroke:#000000;stroke-width:1.0;"/><text fill="#000000" font-family="sans-serif" font-size="14" lengthAdjust="spacing" textLength="117.5303" x="436.5" y="323.3496">total_batches: long</text><ellipse cx="427.5" cy="337.6738" fill="#000000" rx="3" ry="3" style="stroke:#000000;stroke-width:1.0;"/><text fill="#000000" font-family="sans-serif" font-size="14" lengthAdjust="spacing" textLength="140.0684" x="436.5" y="341.9707">scope_id : UUID &#171;PK&#187;</text></g><!--class checkpoint_batches--><g id="elem_checkpoint_batches"><rect codeLine="38" fill="#F1F1F1" height="103.8633" id="checkpoint_batches" rx="2.5" ry="2.5" style="stroke:#181818;stroke-width:0.5;" width="194.8545" x="408" y="437"/><ellipse cx="440.5966" cy="453" fill="#ADD1B2" rx="11" ry="11" style="stroke:#181818;stroke-width:1.0;"/><path d="M439.456,453.7969 L439.456,456.2969 L443.7841,456.2969 L443.7841,455.375 Q443.7841,454.7656 444.0185,454.5 Q444.2685,454.2344 444.6435,454.2344 Q445.0185,454.2344 445.2528,454.5 Q445.4872,454.7656 445.4872,455.375 L445.4872,458 L437.4872,458 Q436.8622,458 436.5966,457.7656 Q436.3466,457.5313 436.3466,457.1406 Q436.3466,456.7656 436.6122,456.5313 Q436.8778,456.2969 437.4872,456.2969 L437.7528,456.2969 L437.7528,449.6406 L437.4872,449.6406 Q436.8622,449.6406 436.5966,449.4063 Q436.3466,449.1719 436.3466,448.7813 Q436.3466,448.4063 436.5966,448.1719 Q436.8622,447.9375 437.4872,447.9375 L445.1122,447.9375 L445.1122,450.5313 Q445.1122,451.1406 444.8778,451.4063 Q444.6591,451.6563 444.2685,451.6563 Q443.8935,451.6563 443.6591,451.4063 Q443.4247,451.1406 443.4247,450.5313 L443.4247,449.6406 L439.456,449.6406 L439.456,452.0938 L440.9403,452.0938 Q440.9403,451.4375 441.0653,451.25 Q441.331,450.8438 441.7997,450.8438 Q442.1747,450.8438 442.4091,451.1094 Q442.6435,451.3594 442.6435,451.9688 L442.6435,453.9375 Q442.6435,454.4844 442.5185,454.6719 Q442.2528,455.0625 441.7997,455.0625 Q441.331,455.0625 441.0653,454.6563 Q440.9403,454.4688 440.9403,453.7969 L439.456,453.7969 Z " fill="#000000"/><text fill="#000000" font-family="sans-serif" font-size="14" lengthAdjust="spacing" textLength="123.751" x="458.5069" y="458.7969">checkpoint_batches</text><line style="stroke:#181818;stroke-width:0.5;" x1="409" x2="601.8545" y1="469" y2="469"/><ellipse cx="419" cy="483.8105" fill="#000000" rx="3" ry="3" style="stroke:#000000;stroke-width:1.0;"/><text fill="#000000" font-family="sans-serif" font-size="14" lengthAdjust="spacing" textLength="139.3027" x="428" y="488.1074">id : UUID &#171;generated&#187;</text><line style="stroke:#181818;stroke-width:1.0;" x1="409" x2="601.8545" y1="495.6211" y2="495.6211"/><ellipse cx="419" cy="510.4316" fill="#000000" rx="3" ry="3" style="stroke:#000000;stroke-width:1.0;"/><text fill="#000000" font-family="sans-serif" font-size="14" lengthAdjust="spacing" textLength="113.6406" x="428" y="514.7285">batch_index : long</text><ellipse cx="419" cy="529.0527" fill="#000000" rx="3" ry="3" style="stroke:#000000;stroke-width:1.0;"/><text fill="#000000" font-family="sans-serif" font-size="14" lengthAdjust="spacing" textLength="168.8545" x="428" y="533.3496">checkpoint_id : UUID &#171;FK&#187;</text></g><!--class host--><g id="elem_host"><rect codeLine="45" fill="#F1F1F1" height="103.8633" id="host" rx="2.5" ry="2.5" style="stroke:#181818;stroke-width:0.5;" width="165.3027" x="7" y="236"/><ellipse cx="72.1704" cy="252" fill="#ADD1B2" rx="11" ry="11" style="stroke:#181818;stroke-width:1.0;"/><path d="M71.0298,252.7969 L71.0298,255.2969 L75.3579,255.2969 L75.3579,254.375 Q75.3579,253.7656 75.5923,253.5 Q75.8423,253.2344 76.2173,253.2344 Q76.5923,253.2344 76.8267,253.5 Q77.061,253.7656 77.061,254.375 L77.061,257 L69.061,257 Q68.436,257 68.1704,256.7656 Q67.9204,256.5313 67.9204,256.1406 Q67.9204,255.7656 68.186,255.5313 Q68.4517,255.2969 69.061,255.2969 L69.3267,255.2969 L69.3267,248.6406 L69.061,248.6406 Q68.436,248.6406 68.1704,248.4063 Q67.9204,248.1719 67.9204,247.7813 Q67.9204,247.4063 68.1704,247.1719 Q68.436,246.9375 69.061,246.9375 L76.686,246.9375 L76.686,249.5313 Q76.686,250.1406 76.4517,250.4063 Q76.2329,250.6563 75.8423,250.6563 Q75.4673,250.6563 75.2329,250.4063 Q74.9985,250.1406 74.9985,249.5313 L74.9985,248.6406 L71.0298,248.6406 L71.0298,251.0938 L72.5142,251.0938 Q72.5142,250.4375 72.6392,250.25 Q72.9048,249.8438 73.3735,249.8438 Q73.7485,249.8438 73.9829,250.1094 Q74.2173,250.3594 74.2173,250.9688 L74.2173,252.9375 Q74.2173,253.4844 74.0923,253.6719 Q73.8267,254.0625 73.3735,254.0625 Q72.9048,254.0625 72.6392,253.6563 Q72.5142,253.4688 72.5142,252.7969 L71.0298,252.7969 Z " fill="#000000"/><text fill="#000000" font-family="sans-serif" font-size="14" lengthAdjust="spacing" textLength="26.4619" x="92.6704" y="257.7969">host</text><line style="stroke:#181818;stroke-width:0.5;" x1="8" x2="171.3027" y1="268" y2="268"/><ellipse cx="18" cy="282.8105" fill="#000000" rx="3" ry="3" style="stroke:#000000;stroke-width:1.0;"/><text fill="#000000" font-family="sans-serif" font-size="14" lengthAdjust="spacing" textLength="139.3027" x="27" y="287.1074">id : UUID &#171;generated&#187;</text><line style="stroke:#181818;stroke-width:1.0;" x1="8" x2="171.3027" y1="294.6211" y2="294.6211"/><ellipse cx="18" cy="309.4316" fill="#000000" rx="3" ry="3" style="stroke:#000000;stroke-width:1.0;"/><text fill="#000000" font-family="sans-serif" font-size="14" lengthAdjust="spacing" textLength="69.2549" x="27" y="313.7285">name : text</text><ellipse cx="18" cy="328.0527" fill="#000000" rx="3" ry="3" style="stroke:#000000;stroke-width:1.0;"/><text fill="#000000" font-family="sans-serif" font-size="14" lengthAdjust="spacing" textLength="49.793" x="27" y="332.3496">url : text</text></g><!--class database--><g id="elem_database"><rect codeLine="52" fill="#F1F1F1" height="103.8633" id="database" rx="2.5" ry="2.5" style="stroke:#181818;stroke-width:0.5;" width="165.3027" x="7" y="437"/><ellipse cx="56.5981" cy="453" fill="#ADD1B2" rx="11" ry="11" style="stroke:#181818;stroke-width:1.0;"/><path d="M55.4575,453.7969 L55.4575,456.2969 L59.7856,456.2969 L59.7856,455.375 Q59.7856,454.7656 60.02,454.5 Q60.27,454.2344 60.645,454.2344 Q61.02,454.2344 61.2544,454.5 Q61.4888,454.7656 61.4888,455.375 L61.4888,458 L53.4888,458 Q52.8638,458 52.5981,457.7656 Q52.3481,457.5313 52.3481,457.1406 Q52.3481,456.7656 52.6138,456.5313 Q52.8794,456.2969 53.4888,456.2969 L53.7544,456.2969 L53.7544,449.6406 L53.4888,449.6406 Q52.8638,449.6406 52.5981,449.4063 Q52.3481,449.1719 52.3481,448.7813 Q52.3481,448.4063 52.5981,448.1719 Q52.8638,447.9375 53.4888,447.9375 L61.1138,447.9375 L61.1138,450.5313 Q61.1138,451.1406 60.8794,451.4063 Q60.6606,451.6563 60.27,451.6563 Q59.895,451.6563 59.6606,451.4063 Q59.4263,451.1406 59.4263,450.5313 L59.4263,449.6406 L55.4575,449.6406 L55.4575,452.0938 L56.9419,452.0938 Q56.9419,451.4375 57.0669,451.25 Q57.3325,450.8438 57.8013,450.8438 Q58.1763,450.8438 58.4106,451.1094 Q58.645,451.3594 58.645,451.9688 L58.645,453.9375 Q58.645,454.4844 58.52,454.6719 Q58.2544,455.0625 57.8013,455.0625 Q57.3325,455.0625 57.0669,454.6563 Q56.9419,454.4688 56.9419,453.7969 L55.4575,453.7969 Z " fill="#000000"/><text fill="#000000" font-family="sans-serif" font-size="14" lengthAdjust="spacing" textLength="57.6064" x="77.0981" y="458.7969">database</text><line style="stroke:#181818;stroke-width:0.5;" x1="8" x2="171.3027" y1="469" y2="469"/><ellipse cx="18" cy="483.8105" fill="#000000" rx="3" ry="3" style="stroke:#000000;stroke-width:1.0;"/><text fill="#000000" font-family="sans-serif" font-size="14" lengthAdjust="spacing" textLength="139.3027" x="27" y="488.1074">id : UUID &#171;generated&#187;</text><line style="stroke:#181818;stroke-width:1.0;" x1="8" x2="171.3027" y1="495.6211" y2="495.6211"/><ellipse cx="18" cy="510.4316" fill="#000000" rx="3" ry="3" style="stroke:#000000;stroke-width:1.0;"/><text fill="#000000" font-family="sans-serif" font-size="14" lengthAdjust="spacing" textLength="69.2549" x="27" y="514.7285">name : text</text><ellipse cx="18" cy="529.0527" fill="#000000" rx="3" ry="3" style="stroke:#000000;stroke-width:1.0;"/><text fill="#000000" font-family="sans-serif" font-size="14" lengthAdjust="spacing" textLength="128.3857" x="27" y="533.3496">host_id : UUID &#171;FK&#187;</text></g><!--link project to scope--><g id="link_project_scope"><path codeLine="59" d="M292.5,156.22 C292.5,175.4 292.5,180.33 292.5,199.99 " fill="none" id="project-scope" style="stroke:#181818;stroke-width:1.0;stroke-dasharray:7.0,7.0;"/><line style="stroke:#181818;stroke-width:1.0;" x1="288.5" x2="296.5" y1="152.22" y2="152.22"/><line style="stroke:#181818;stroke-width:1.0;" x1="288.5" x2="296.5" y1="155.22" y2="155.22"/><line style="stroke:#181818;stroke-width:1.0;" x1="292.5" x2="292.5" y1="156.22" y2="148.22"/><line style="stroke:#181818;stroke-width:1.0;" x1="292.5" x2="298.5" y1="199.99" y2="207.99"/><line style="stroke:#181818;stroke-width:1.0;" x1="292.5" x2="286.5" y1="199.99" y2="207.99"/><line style="stroke:#181818;stroke-width:1.0;" x1="292.5" x2="292.5" y1="199.99" y2="207.99"/><line style="stroke:#181818;stroke-width:1.0;" x1="296.5" x2="288.5" y1="197.99" y2="197.99"/></g><!--link scope to item--><g id="link_scope_item"><path codeLine="60" d="M291.6194,376.2196 C291.4194,396.0596 291.3668,401.0104 291.1868,419.7604 " fill="none" id="scope-item" style="stroke:#181818;stroke-width:1.0;stroke-dasharray:7.0,7.0;"/><line style="stroke:#181818;stroke-width:1.0;" x1="287.6599" x2="295.6595" y1="372.1795" y2="372.2601"/><line style="stroke:#181818;stroke-width:1.0;" x1="287.6296" x2="295.6292" y1="375.1793" y2="375.26"/><line style="stroke:#181818;stroke-width:1.0;" x1="291.6194" x2="291.7" y1="376.2196" y2="368.22"/><line style="stroke:#181818;stroke-width:1.0;" x1="291.1868" x2="297.1097" y1="419.7604" y2="427.8176"/><line style="stroke:#181818;stroke-width:1.0;" x1="291.1868" x2="285.1103" y1="419.7604" y2="427.7024"/><line style="stroke:#181818;stroke-width:1.0;" x1="291.1868" x2="291.11" y1="419.7604" y2="427.76"/><line style="stroke:#181818;stroke-width:1.0;" x1="295.2058" x2="287.2062" y1="417.7989" y2="417.7221"/></g><!--link scope to checkpoint--><g id="link_scope_checkpoint"><path codeLine="62" d="M385.81,288 C398.64,288 395.48,288 408.31,288 " fill="none" id="scope-checkpoint" style="stroke:#181818;stroke-width:1.0;stroke-dasharray:7.0,7.0;"/><line style="stroke:#181818;stroke-width:1.0;" x1="381.81" x2="381.81" y1="292" y2="284"/><line style="stroke:#181818;stroke-width:1.0;" x1="384.81" x2="384.81" y1="292" y2="284"/><line style="stroke:#181818;stroke-width:1.0;" x1="385.81" x2="377.81" y1="288" y2="288"/><line style="stroke:#181818;stroke-width:1.0;" x1="412.31" x2="412.31" y1="284" y2="292"/><line style="stroke:#181818;stroke-width:1.0;" x1="409.31" x2="409.31" y1="284" y2="292"/><line style="stroke:#181818;stroke-width:1.0;" x1="408.31" x2="416.31" y1="288" y2="288"/></g><!--link checkpoint to checkpoint_batches--><g id="link_checkpoint_checkpoint_batches"><path codeLine="64" d="M501.5607,357.2464 C502.4007,385.1564 502.9105,401.9836 503.7105,428.6936 " fill="none" id="checkpoint-checkpoint_batches" style="stroke:#181818;stroke-width:1.0;stroke-dasharray:7.0,7.0;"/><line style="stroke:#181818;stroke-width:1.0;" x1="497.4421" x2="505.4385" y1="353.3685" y2="353.1279"/><line style="stroke:#181818;stroke-width:1.0;" x1="497.5324" x2="505.5288" y1="356.3672" y2="356.1265"/><line style="stroke:#181818;stroke-width:1.0;" x1="501.5607" x2="501.32" y1="357.2464" y2="349.25"/><line style="stroke:#181818;stroke-width:1.0;" x1="503.7105" x2="509.9473" y1="428.6936" y2="436.5104"/><line style="stroke:#181818;stroke-width:1.0;" x1="503.7105" x2="497.9527" y1="428.6936" y2="436.8696"/><line style="stroke:#181818;stroke-width:1.0;" x1="503.7105" x2="503.95" y1="428.6936" y2="436.69"/><line style="stroke:#181818;stroke-width:1.0;" x1="507.6488" x2="499.6524" y1="426.5747" y2="426.8142"/></g><!--link host to database--><g id="link_host_database"><path codeLine="66" d="M89.5,348.25 C89.5,377.96 89.5,399.24 89.5,428.93 " fill="none" id="host-database" style="stroke:#181818;stroke-width:1.0;stroke-dasharray:7.0,7.0;"/><line style="stroke:#181818;stroke-width:1.0;" x1="85.5" x2="93.5" y1="344.25" y2="344.25"/><line style="stroke:#181818;stroke-width:1.0;" x1="85.5" x2="93.5" y1="347.25" y2="347.25"/><line style="stroke:#181818;stroke-width:1.0;" x1="89.5" x2="89.5" y1="348.25" y2="340.25"/><line style="stroke:#181818;stroke-width:1.0;" x1="89.5" x2="95.5" y1="428.93" y2="436.93"/><line style="stroke:#181818;stroke-width:1.0;" x1="89.5" x2="83.5" y1="428.93" y2="436.93"/><line style="stroke:#181818;stroke-width:1.0;" x1="89.5" x2="89.5" y1="428.93" y2="436.93"/><line style="stroke:#181818;stroke-width:1.0;" x1="93.5" x2="85.5" y1="426.93" y2="426.93"/></g><!--link host to scope--><rect fill="#DDDDDD" height="28.6211" id="_legend" rx="7.5" ry="7.5" style="stroke:#000000;stroke-width:1.0;" width="140.7168" x="227.5688" y="568.4844"/><text fill="#000000" font-family="sans-serif" font-size="14" lengthAdjust="spacing" textLength="130.7168" x="232.5688" y="588.5918">Crow&#8217;s Foot Notation</text><!--SRC=[fLFDQi904BxlK-nPq0SGoQL5A8NIYwTImYOxDLlNdR0xGQqfz3NwUdsIJkAcHgmMQow1Rtw-RxwPjJ07f-MDnzNNnsUGKqII3qYA33eXm96XZImzla9ESYiaVmDfj1pBsUpkLaucN0zU4UWaQQF3OKnoQWcSHh2cYE2AKm-Xt4DJow3cVmjQ5IYjIjt7tt-aX1nBk4p80ZP_aWxaYt4c52sQ8LfGBWQu3hnJzYWGNKdx8gRtpBvNQmYMbuaDR7qL-dgPfWHF1iBX5AqJvyZp0l95YSPTkBXCKLwamRmrw-DgFX4VGyINOTCs0S9OMdJpaseUJwdfwl-ZoZWDQtd0t6jynem2mzNtMtdR0Vl6V48gKm6kRTu8_7M0xl7LzMXKRtT6YzqpY51pPM8FrNNF4o5wPn3pZrSXHEjFZ7SZHNJuL1YjmJqdaVmR]--></g></svg>