<svg xmlns="http://www.w3.org/2000/svg" xmlns:xlink="http://www.w3.org/1999/xlink" contentStyleType="text/css" height="945px" preserveAspectRatio="none" style="width:728px;height:945px;background:#FFFFFF;" version="1.1" viewBox="0 0 728 945" width="728px" zoomAndPan="magnify"><defs/><g><!--class project--><g id="elem_project"><rect codeLine="3" fill="#F1F1F1" height="159.7266" id="project" rx="2.5" ry="2.5" style="stroke:#181818;stroke-width:0.5;" width="349.709" x="93.5" y="7"/><ellipse cx="243.0942" cy="23" fill="#ADD1B2" rx="11" ry="11" style="stroke:#181818;stroke-width:1.0;"/><path d="M241.9536,23.7969 L241.9536,26.2969 L246.2817,26.2969 L246.2817,25.375 Q246.2817,24.7656 246.5161,24.5 Q246.7661,24.2344 247.1411,24.2344 Q247.5161,24.2344 247.7505,24.5 Q247.9849,24.7656 247.9849,25.375 L247.9849,28 L239.9849,28 Q239.3599,28 239.0942,27.7656 Q238.8442,27.5313 238.8442,27.1406 Q238.8442,26.7656 239.1099,26.5313 Q239.3755,26.2969 239.9849,26.2969 L240.2505,26.2969 L240.2505,19.6406 L239.9849,19.6406 Q239.3599,19.6406 239.0942,19.4063 Q238.8442,19.1719 238.8442,18.7813 Q238.8442,18.4063 239.0942,18.1719 Q239.3599,17.9375 239.9849,17.9375 L247.6099,17.9375 L247.6099,20.5313 Q247.6099,21.1406 247.3755,21.4063 Q247.1567,21.6563 246.7661,21.6563 Q246.3911,21.6563 246.1567,21.4063 Q245.9224,21.1406 245.9224,20.5313 L245.9224,19.6406 L241.9536,19.6406 L241.9536,22.0938 L243.438,22.0938 Q243.438,21.4375 243.563,21.25 Q243.8286,20.8438 244.2974,20.8438 Q244.6724,20.8438 244.9067,21.1094 Q245.1411,21.3594 245.1411,21.9688 L245.1411,23.9375 Q245.1411,24.4844 245.0161,24.6719 Q244.7505,25.0625 244.2974,25.0625 Q243.8286,25.0625 243.563,24.6563 Q243.438,24.4688 243.438,23.7969 L241.9536,23.7969 Z " fill="#000000"/><text fill="#000000" font-family="sans-serif" font-size="14" lengthAdjust="spacing" textLength="42.0205" x="263.5942" y="28.7969">project</text><line style="stroke:#181818;stroke-width:0.5;" x1="94.5" x2="442.209" y1="39" y2="39"/><ellipse cx="104.5" cy="53.8105" fill="#000000" rx="3" ry="3" style="stroke:#000000;stroke-width:1.0;"/><text fill="#000000" font-family="sans-serif" font-size="14" lengthAdjust="spacing" textLength="131.5508" x="113.5" y="58.1074">id : uuid &#171;generated&#187;</text><line style="stroke:#181818;stroke-width:1.0;" x1="94.5" x2="442.209" y1="65.6211" y2="65.6211"/><ellipse cx="104.5" cy="80.4316" fill="#000000" rx="3" ry="3" style="stroke:#000000;stroke-width:1.0;"/><text fill="#000000" font-family="sans-serif" font-size="14" lengthAdjust="spacing" textLength="186.751" x="113.5" y="84.7285">name : character varying(255)</text><ellipse cx="104.5" cy="99.0527" fill="#000000" rx="3" ry="3" style="stroke:#000000;stroke-width:1.0;"/><text fill="#000000" font-family="sans-serif" font-size="14" lengthAdjust="spacing" textLength="99.6406" x="113.5" y="103.3496">delete : boolean</text><ellipse cx="104.5" cy="117.6738" fill="#000000" rx="3" ry="3" style="stroke:#000000;stroke-width:1.0;"/><text fill="#000000" font-family="sans-serif" font-size="14" lengthAdjust="spacing" textLength="220.999" x="113.5" y="121.9707">created_by : character varying(255)</text><ellipse cx="104.5" cy="136.2949" fill="#000000" rx="3" ry="3" style="stroke:#000000;stroke-width:1.0;"/><text fill="#000000" font-family="sans-serif" font-size="14" lengthAdjust="spacing" textLength="287.916" x="113.5" y="140.5918">created_date : timestamp(6) without time zone</text><ellipse cx="104.5" cy="154.916" fill="#000000" rx="3" ry="3" style="stroke:#000000;stroke-width:1.0;"/><text fill="#000000" font-family="sans-serif" font-size="14" lengthAdjust="spacing" textLength="323.709" x="113.5" y="159.2129">last_modified_date : timestamp(6) without time zone</text></g><!--class scope--><g id="elem_scope"><rect codeLine="13" fill="#F1F1F1" height="215.5898" id="scope" rx="2.5" ry="2.5" style="stroke:#181818;stroke-width:0.5;" width="313.916" x="120.5" y="227"/><ellipse cx="254.5288" cy="243" fill="#ADD1B2" rx="11" ry="11" style="stroke:#181818;stroke-width:1.0;"/><path d="M253.3882,243.7969 L253.3882,246.2969 L257.7163,246.2969 L257.7163,245.375 Q257.7163,244.7656 257.9507,244.5 Q258.2007,244.2344 258.5757,244.2344 Q258.9507,244.2344 259.1851,244.5 Q259.4194,244.7656 259.4194,245.375 L259.4194,248 L251.4194,248 Q250.7944,248 250.5288,247.7656 Q250.2788,247.5313 250.2788,247.1406 Q250.2788,246.7656 250.5444,246.5313 Q250.8101,246.2969 251.4194,246.2969 L251.6851,246.2969 L251.6851,239.6406 L251.4194,239.6406 Q250.7944,239.6406 250.5288,239.4063 Q250.2788,239.1719 250.2788,238.7813 Q250.2788,238.4063 250.5288,238.1719 Q250.7944,237.9375 251.4194,237.9375 L259.0444,237.9375 L259.0444,240.5313 Q259.0444,241.1406 258.8101,241.4063 Q258.5913,241.6563 258.2007,241.6563 Q257.8257,241.6563 257.5913,241.4063 Q257.3569,241.1406 257.3569,240.5313 L257.3569,239.6406 L253.3882,239.6406 L253.3882,242.0938 L254.8726,242.0938 Q254.8726,241.4375 254.9976,241.25 Q255.2632,240.8438 255.7319,240.8438 Q256.1069,240.8438 256.3413,241.1094 Q256.5757,241.3594 256.5757,241.9688 L256.5757,243.9375 Q256.5757,244.4844 256.4507,244.6719 Q256.1851,245.0625 255.7319,245.0625 Q255.2632,245.0625 254.9976,244.6563 Q254.8726,244.4688 254.8726,243.7969 L253.3882,243.7969 Z " fill="#000000"/><text fill="#000000" font-family="sans-serif" font-size="14" lengthAdjust="spacing" textLength="37.3584" x="275.0288" y="248.7969">scope</text><line style="stroke:#181818;stroke-width:0.5;" x1="121.5" x2="433.416" y1="259" y2="259"/><ellipse cx="131.5" cy="273.8105" fill="#000000" rx="3" ry="3" style="stroke:#000000;stroke-width:1.0;"/><text fill="#000000" font-family="sans-serif" font-size="14" lengthAdjust="spacing" textLength="131.5508" x="140.5" y="278.1074">id : uuid &#171;generated&#187;</text><line style="stroke:#181818;stroke-width:1.0;" x1="121.5" x2="433.416" y1="285.6211" y2="285.6211"/><ellipse cx="131.5" cy="300.4316" fill="#000000" rx="3" ry="3" style="stroke:#000000;stroke-width:1.0;"/><text fill="#000000" font-family="sans-serif" font-size="14" lengthAdjust="spacing" textLength="173.5166" x="140.5" y="304.7285">key : character varying(255)</text><ellipse cx="131.5" cy="319.0527" fill="#000000" rx="3" ry="3" style="stroke:#000000;stroke-width:1.0;"/><text fill="#000000" font-family="sans-serif" font-size="14" lengthAdjust="spacing" textLength="287.916" x="140.5" y="323.3496">created_date : timestamp(6) without time zone</text><ellipse cx="131.5" cy="337.6738" fill="#000000" rx="3" ry="3" style="stroke:#000000;stroke-width:1.0;"/><text fill="#000000" font-family="sans-serif" font-size="14" lengthAdjust="spacing" textLength="109.751" x="140.5" y="341.9707">finished : boolean</text><ellipse cx="131.5" cy="356.2949" fill="#000000" rx="3" ry="3" style="stroke:#000000;stroke-width:1.0;"/><text fill="#000000" font-family="sans-serif" font-size="14" lengthAdjust="spacing" textLength="111.3027" x="140.5" y="360.5918">external : boolean</text><ellipse cx="131.5" cy="374.916" fill="#000000" rx="3" ry="3" style="stroke:#000000;stroke-width:1.0;"/><text fill="#000000" font-family="sans-serif" font-size="14" lengthAdjust="spacing" textLength="99.6406" x="140.5" y="379.2129">delete : boolean</text><text fill="#000000" font-family="sans-serif" font-size="14" lengthAdjust="spacing" textLength="95.7305" x="140.5" y="397.834">headers : jsonb</text><text fill="#000000" font-family="sans-serif" font-size="14" lengthAdjust="spacing" textLength="140.0957" x="140.5" y="416.4551">hiddenHeaders : jsonb</text><ellipse cx="131.5" cy="430.7793" fill="#000000" rx="3" ry="3" style="stroke:#000000;stroke-width:1.0;"/><text fill="#000000" font-family="sans-serif" font-size="14" lengthAdjust="spacing" textLength="136.1924" x="140.5" y="435.0762">project_id : uuid &#171;FK&#187;</text></g><!--class item--><g id="elem_item"><rect codeLine="26" fill="#F1F1F1" height="122.4844" id="item" rx="2.5" ry="2.5" style="stroke:#181818;stroke-width:0.5;" width="157.5508" x="214.5" y="559"/><ellipse cx="275.8013" cy="575" fill="#ADD1B2" rx="11" ry="11" style="stroke:#181818;stroke-width:1.0;"/><path d="M274.6606,575.7969 L274.6606,578.2969 L278.9888,578.2969 L278.9888,577.375 Q278.9888,576.7656 279.2231,576.5 Q279.4731,576.2344 279.8481,576.2344 Q280.2231,576.2344 280.4575,576.5 Q280.6919,576.7656 280.6919,577.375 L280.6919,580 L272.6919,580 Q272.0669,580 271.8013,579.7656 Q271.5513,579.5313 271.5513,579.1406 Q271.5513,578.7656 271.8169,578.5313 Q272.0825,578.2969 272.6919,578.2969 L272.9575,578.2969 L272.9575,571.6406 L272.6919,571.6406 Q272.0669,571.6406 271.8013,571.4063 Q271.5513,571.1719 271.5513,570.7813 Q271.5513,570.4063 271.8013,570.1719 Q272.0669,569.9375 272.6919,569.9375 L280.3169,569.9375 L280.3169,572.5313 Q280.3169,573.1406 280.0825,573.4063 Q279.8638,573.6563 279.4731,573.6563 Q279.0981,573.6563 278.8638,573.4063 Q278.6294,573.1406 278.6294,572.5313 L278.6294,571.6406 L274.6606,571.6406 L274.6606,574.0938 L276.145,574.0938 Q276.145,573.4375 276.27,573.25 Q276.5356,572.8438 277.0044,572.8438 Q277.3794,572.8438 277.6138,573.1094 Q277.8481,573.3594 277.8481,573.9688 L277.8481,575.9375 Q277.8481,576.4844 277.7231,576.6719 Q277.4575,577.0625 277.0044,577.0625 Q276.5356,577.0625 276.27,576.6563 Q276.145,576.4688 276.145,575.7969 L274.6606,575.7969 Z " fill="#000000"/><text fill="#000000" font-family="sans-serif" font-size="14" lengthAdjust="spacing" textLength="26.4482" x="296.3013" y="580.7969">item</text><line style="stroke:#181818;stroke-width:0.5;" x1="215.5" x2="371.0508" y1="591" y2="591"/><ellipse cx="225.5" cy="605.8105" fill="#000000" rx="3" ry="3" style="stroke:#000000;stroke-width:1.0;"/><text fill="#000000" font-family="sans-serif" font-size="14" lengthAdjust="spacing" textLength="131.5508" x="234.5" y="610.1074">id : uuid &#171;generated&#187;</text><line style="stroke:#181818;stroke-width:1.0;" x1="215.5" x2="371.0508" y1="617.6211" y2="617.6211"/><ellipse cx="225.5" cy="632.4316" fill="#000000" rx="3" ry="3" style="stroke:#000000;stroke-width:1.0;"/><text fill="#000000" font-family="sans-serif" font-size="14" lengthAdjust="spacing" textLength="116.7236" x="234.5" y="636.7285">lineNumber : bigint</text><ellipse cx="225.5" cy="651.0527" fill="#000000" rx="3" ry="3" style="stroke:#000000;stroke-width:1.0;"/><text fill="#000000" font-family="sans-serif" font-size="14" lengthAdjust="spacing" textLength="107.3926" x="234.5" y="655.3496">properties : jsonb</text><ellipse cx="225.5" cy="669.6738" fill="#000000" rx="3" ry="3" style="stroke:#000000;stroke-width:1.0;"/><text fill="#000000" font-family="sans-serif" font-size="14" lengthAdjust="spacing" textLength="131.5303" x="234.5" y="673.9707">scope_id : uuid &#171;FK&#187;</text></g><!--class checkpoint--><g id="elem_checkpoint"><rect codeLine="34" fill="#F1F1F1" height="122.4844" id="checkpoint" rx="2.5" ry="2.5" style="stroke:#181818;stroke-width:0.5;" width="157.5508" x="21.5" y="559"/><ellipse cx="62.8791" cy="575" fill="#ADD1B2" rx="11" ry="11" style="stroke:#181818;stroke-width:1.0;"/><path d="M61.7384,575.7969 L61.7384,578.2969 L66.0666,578.2969 L66.0666,577.375 Q66.0666,576.7656 66.3009,576.5 Q66.5509,576.2344 66.9259,576.2344 Q67.3009,576.2344 67.5353,576.5 Q67.7697,576.7656 67.7697,577.375 L67.7697,580 L59.7697,580 Q59.1447,580 58.8791,579.7656 Q58.6291,579.5313 58.6291,579.1406 Q58.6291,578.7656 58.8947,578.5313 Q59.1603,578.2969 59.7697,578.2969 L60.0353,578.2969 L60.0353,571.6406 L59.7697,571.6406 Q59.1447,571.6406 58.8791,571.4063 Q58.6291,571.1719 58.6291,570.7813 Q58.6291,570.4063 58.8791,570.1719 Q59.1447,569.9375 59.7697,569.9375 L67.3947,569.9375 L67.3947,572.5313 Q67.3947,573.1406 67.1603,573.4063 Q66.9416,573.6563 66.5509,573.6563 Q66.1759,573.6563 65.9416,573.4063 Q65.7072,573.1406 65.7072,572.5313 L65.7072,571.6406 L61.7384,571.6406 L61.7384,574.0938 L63.2228,574.0938 Q63.2228,573.4375 63.3478,573.25 Q63.6134,572.8438 64.0822,572.8438 Q64.4572,572.8438 64.6916,573.1094 Q64.9259,573.3594 64.9259,573.9688 L64.9259,575.9375 Q64.9259,576.4844 64.8009,576.6719 Q64.5353,577.0625 64.0822,577.0625 Q63.6134,577.0625 63.3478,576.6563 Q63.2228,576.4688 63.2228,575.7969 L61.7384,575.7969 Z " fill="#000000"/><text fill="#000000" font-family="sans-serif" font-size="14" lengthAdjust="spacing" textLength="66.9307" x="82.7411" y="580.7969">checkpoint</text><line style="stroke:#181818;stroke-width:0.5;" x1="22.5" x2="178.0508" y1="591" y2="591"/><ellipse cx="32.5" cy="605.8105" fill="#000000" rx="3" ry="3" style="stroke:#000000;stroke-width:1.0;"/><text fill="#000000" font-family="sans-serif" font-size="14" lengthAdjust="spacing" textLength="131.5508" x="41.5" y="610.1074">id : uuid &#171;generated&#187;</text><line style="stroke:#181818;stroke-width:1.0;" x1="22.5" x2="178.0508" y1="617.6211" y2="617.6211"/><ellipse cx="32.5" cy="632.4316" fill="#000000" rx="3" ry="3" style="stroke:#000000;stroke-width:1.0;"/><text fill="#000000" font-family="sans-serif" font-size="14" lengthAdjust="spacing" textLength="121.4063" x="41.5" y="636.7285">batch_size : integer</text><ellipse cx="32.5" cy="651.0527" fill="#000000" rx="3" ry="3" style="stroke:#000000;stroke-width:1.0;"/><text fill="#000000" font-family="sans-serif" font-size="14" lengthAdjust="spacing" textLength="128.4199" x="41.5" y="655.3496">total_batches : bigint</text><ellipse cx="32.5" cy="669.6738" fill="#000000" rx="3" ry="3" style="stroke:#000000;stroke-width:1.0;"/><text fill="#000000" font-family="sans-serif" font-size="14" lengthAdjust="spacing" textLength="131.5303" x="41.5" y="673.9707">scope_id : uuid &#171;FK&#187;</text></g><!--class checkpoint_batch--><g id="elem_checkpoint_batch"><rect codeLine="42" fill="#F1F1F1" height="103.8633" id="checkpoint_batch" rx="2.5" ry="2.5" style="stroke:#181818;stroke-width:0.5;" width="187.1025" x="7" y="815.5"/><ellipse cx="42.762" cy="831.5" fill="#ADD1B2" rx="11" ry="11" style="stroke:#181818;stroke-width:1.0;"/><path d="M41.6213,832.2969 L41.6213,834.7969 L45.9495,834.7969 L45.9495,833.875 Q45.9495,833.2656 46.1838,833 Q46.4338,832.7344 46.8088,832.7344 Q47.1838,832.7344 47.4182,833 Q47.6526,833.2656 47.6526,833.875 L47.6526,836.5 L39.6526,836.5 Q39.0276,836.5 38.762,836.2656 Q38.512,836.0313 38.512,835.6406 Q38.512,835.2656 38.7776,835.0313 Q39.0432,834.7969 39.6526,834.7969 L39.9182,834.7969 L39.9182,828.1406 L39.6526,828.1406 Q39.0276,828.1406 38.762,827.9063 Q38.512,827.6719 38.512,827.2813 Q38.512,826.9063 38.762,826.6719 Q39.0276,826.4375 39.6526,826.4375 L47.2776,826.4375 L47.2776,829.0313 Q47.2776,829.6406 47.0432,829.9063 Q46.8245,830.1563 46.4338,830.1563 Q46.0588,830.1563 45.8245,829.9063 Q45.5901,829.6406 45.5901,829.0313 L45.5901,828.1406 L41.6213,828.1406 L41.6213,830.5938 L43.1057,830.5938 Q43.1057,829.9375 43.2307,829.75 Q43.4963,829.3438 43.9651,829.3438 Q44.3401,829.3438 44.5745,829.6094 Q44.8088,829.8594 44.8088,830.4688 L44.8088,832.4375 Q44.8088,832.9844 44.6838,833.1719 Q44.4182,833.5625 43.9651,833.5625 Q43.4963,833.5625 43.2307,833.1563 Q43.1057,832.9688 43.1057,832.2969 L41.6213,832.2969 Z " fill="#000000"/><text fill="#000000" font-family="sans-serif" font-size="14" lengthAdjust="spacing" textLength="108.9648" x="61.3757" y="837.2969">checkpoint_batch</text><line style="stroke:#181818;stroke-width:0.5;" x1="8" x2="193.1025" y1="847.5" y2="847.5"/><ellipse cx="18" cy="862.3105" fill="#000000" rx="3" ry="3" style="stroke:#000000;stroke-width:1.0;"/><text fill="#000000" font-family="sans-serif" font-size="14" lengthAdjust="spacing" textLength="131.5508" x="27" y="866.6074">id : uuid &#171;generated&#187;</text><line style="stroke:#181818;stroke-width:1.0;" x1="8" x2="193.1025" y1="874.1211" y2="874.1211"/><ellipse cx="18" cy="888.9316" fill="#000000" rx="3" ry="3" style="stroke:#000000;stroke-width:1.0;"/><text fill="#000000" font-family="sans-serif" font-size="14" lengthAdjust="spacing" textLength="120.6406" x="27" y="893.2285">batch_index : bigint</text><ellipse cx="18" cy="907.5527" fill="#000000" rx="3" ry="3" style="stroke:#000000;stroke-width:1.0;"/><text fill="#000000" font-family="sans-serif" font-size="14" lengthAdjust="spacing" textLength="161.1025" x="27" y="911.8496">checkpoint_id : uuid &#171;FK&#187;</text></g><!--class host--><g id="elem_host"><rect codeLine="49" fill="#F1F1F1" height="103.8633" id="host" rx="2.5" ry="2.5" style="stroke:#181818;stroke-width:0.5;" width="212.751" x="479" y="35"/><ellipse cx="567.8945" cy="51" fill="#ADD1B2" rx="11" ry="11" style="stroke:#181818;stroke-width:1.0;"/><path d="M566.7539,51.7969 L566.7539,54.2969 L571.082,54.2969 L571.082,53.375 Q571.082,52.7656 571.3164,52.5 Q571.5664,52.2344 571.9414,52.2344 Q572.3164,52.2344 572.5508,52.5 Q572.7852,52.7656 572.7852,53.375 L572.7852,56 L564.7852,56 Q564.1602,56 563.8945,55.7656 Q563.6445,55.5313 563.6445,55.1406 Q563.6445,54.7656 563.9102,54.5313 Q564.1758,54.2969 564.7852,54.2969 L565.0508,54.2969 L565.0508,47.6406 L564.7852,47.6406 Q564.1602,47.6406 563.8945,47.4063 Q563.6445,47.1719 563.6445,46.7813 Q563.6445,46.4063 563.8945,46.1719 Q564.1602,45.9375 564.7852,45.9375 L572.4102,45.9375 L572.4102,48.5313 Q572.4102,49.1406 572.1758,49.4063 Q571.957,49.6563 571.5664,49.6563 Q571.1914,49.6563 570.957,49.4063 Q570.7227,49.1406 570.7227,48.5313 L570.7227,47.6406 L566.7539,47.6406 L566.7539,50.0938 L568.2383,50.0938 Q568.2383,49.4375 568.3633,49.25 Q568.6289,48.8438 569.0977,48.8438 Q569.4727,48.8438 569.707,49.1094 Q569.9414,49.3594 569.9414,49.9688 L569.9414,51.9375 Q569.9414,52.4844 569.8164,52.6719 Q569.5508,53.0625 569.0977,53.0625 Q568.6289,53.0625 568.3633,52.6563 Q568.2383,52.4688 568.2383,51.7969 L566.7539,51.7969 Z " fill="#000000"/><text fill="#000000" font-family="sans-serif" font-size="14" lengthAdjust="spacing" textLength="26.4619" x="588.3945" y="56.7969">host</text><line style="stroke:#181818;stroke-width:0.5;" x1="480" x2="690.751" y1="67" y2="67"/><ellipse cx="490" cy="81.8105" fill="#000000" rx="3" ry="3" style="stroke:#000000;stroke-width:1.0;"/><text fill="#000000" font-family="sans-serif" font-size="14" lengthAdjust="spacing" textLength="131.5508" x="499" y="86.1074">id : uuid &#171;generated&#187;</text><line style="stroke:#181818;stroke-width:1.0;" x1="480" x2="690.751" y1="93.6211" y2="93.6211"/><ellipse cx="490" cy="108.4316" fill="#000000" rx="3" ry="3" style="stroke:#000000;stroke-width:1.0;"/><text fill="#000000" font-family="sans-serif" font-size="14" lengthAdjust="spacing" textLength="186.751" x="499" y="112.7285">name : character varying(255)</text><ellipse cx="490" cy="127.0527" fill="#000000" rx="3" ry="3" style="stroke:#000000;stroke-width:1.0;"/><text fill="#000000" font-family="sans-serif" font-size="14" lengthAdjust="spacing" textLength="167.2891" x="499" y="131.3496">url : character varying(255)</text></g><!--class mapping--><g id="elem_mapping"><rect codeLine="56" fill="#F1F1F1" height="234.2109" id="mapping" rx="2.5" ry="2.5" style="stroke:#181818;stroke-width:0.5;" width="313.916" x="407.5" y="503"/><ellipse cx="533.3564" cy="519" fill="#ADD1B2" rx="11" ry="11" style="stroke:#181818;stroke-width:1.0;"/><path d="M532.2158,519.7969 L532.2158,522.2969 L536.5439,522.2969 L536.5439,521.375 Q536.5439,520.7656 536.7783,520.5 Q537.0283,520.2344 537.4033,520.2344 Q537.7783,520.2344 538.0127,520.5 Q538.2471,520.7656 538.2471,521.375 L538.2471,524 L530.2471,524 Q529.6221,524 529.3564,523.7656 Q529.1064,523.5313 529.1064,523.1406 Q529.1064,522.7656 529.3721,522.5313 Q529.6377,522.2969 530.2471,522.2969 L530.5127,522.2969 L530.5127,515.6406 L530.2471,515.6406 Q529.6221,515.6406 529.3564,515.4063 Q529.1064,515.1719 529.1064,514.7813 Q529.1064,514.4063 529.3564,514.1719 Q529.6221,513.9375 530.2471,513.9375 L537.8721,513.9375 L537.8721,516.5313 Q537.8721,517.1406 537.6377,517.4063 Q537.4189,517.6563 537.0283,517.6563 Q536.6533,517.6563 536.4189,517.4063 Q536.1846,517.1406 536.1846,516.5313 L536.1846,515.6406 L532.2158,515.6406 L532.2158,518.0938 L533.7002,518.0938 Q533.7002,517.4375 533.8252,517.25 Q534.0908,516.8438 534.5596,516.8438 Q534.9346,516.8438 535.1689,517.1094 Q535.4033,517.3594 535.4033,517.9688 L535.4033,519.9375 Q535.4033,520.4844 535.2783,520.6719 Q535.0127,521.0625 534.5596,521.0625 Q534.0908,521.0625 533.8252,520.6563 Q533.7002,520.4688 533.7002,519.7969 L532.2158,519.7969 Z " fill="#000000"/><text fill="#000000" font-family="sans-serif" font-size="14" lengthAdjust="spacing" textLength="53.7031" x="553.8564" y="524.7969">mapping</text><line style="stroke:#181818;stroke-width:0.5;" x1="408.5" x2="720.416" y1="535" y2="535"/><ellipse cx="418.5" cy="549.8105" fill="#000000" rx="3" ry="3" style="stroke:#000000;stroke-width:1.0;"/><text fill="#000000" font-family="sans-serif" font-size="14" lengthAdjust="spacing" textLength="131.5508" x="427.5" y="554.1074">id : uuid &#171;generated&#187;</text><line style="stroke:#181818;stroke-width:1.0;" x1="408.5" x2="720.416" y1="561.6211" y2="561.6211"/><ellipse cx="418.5" cy="576.4316" fill="#000000" rx="3" ry="3" style="stroke:#000000;stroke-width:1.0;"/><text fill="#000000" font-family="sans-serif" font-size="14" lengthAdjust="spacing" textLength="186.751" x="427.5" y="580.7285">name : character varying(255)</text><ellipse cx="418.5" cy="595.0527" fill="#000000" rx="3" ry="3" style="stroke:#000000;stroke-width:1.0;"/><text fill="#000000" font-family="sans-serif" font-size="14" lengthAdjust="spacing" textLength="287.916" x="427.5" y="599.3496">created_date : timestamp(6) without time zone</text><ellipse cx="418.5" cy="613.6738" fill="#000000" rx="3" ry="3" style="stroke:#000000;stroke-width:1.0;"/><text fill="#000000" font-family="sans-serif" font-size="14" lengthAdjust="spacing" textLength="109.751" x="427.5" y="617.9707">finished : boolean</text><ellipse cx="418.5" cy="632.2949" fill="#000000" rx="3" ry="3" style="stroke:#000000;stroke-width:1.0;"/><text fill="#000000" font-family="sans-serif" font-size="14" lengthAdjust="spacing" textLength="129.1992" x="427.5" y="636.5918">processing : boolean</text><ellipse cx="418.5" cy="650.916" fill="#000000" rx="3" ry="3" style="stroke:#000000;stroke-width:1.0;"/><text fill="#000000" font-family="sans-serif" font-size="14" lengthAdjust="spacing" textLength="99.6406" x="427.5" y="655.2129">delete : boolean</text><ellipse cx="418.5" cy="669.5371" fill="#000000" rx="3" ry="3" style="stroke:#000000;stroke-width:1.0;"/><text fill="#000000" font-family="sans-serif" font-size="14" lengthAdjust="spacing" textLength="181.3369" x="427.5" y="673.834">last_processed_batch : bigint</text><ellipse cx="418.5" cy="688.1582" fill="#000000" rx="3" ry="3" style="stroke:#000000;stroke-width:1.0;"/><text fill="#000000" font-family="sans-serif" font-size="14" lengthAdjust="spacing" textLength="98.8408" x="427.5" y="692.4551">mapping : jsonb</text><ellipse cx="418.5" cy="706.7793" fill="#000000" rx="3" ry="3" style="stroke:#000000;stroke-width:1.0;"/><text fill="#000000" font-family="sans-serif" font-size="14" lengthAdjust="spacing" textLength="151.7783" x="427.5" y="711.0762">database_id : uuid &#171;FK&#187;</text><ellipse cx="418.5" cy="725.4004" fill="#000000" rx="3" ry="3" style="stroke:#000000;stroke-width:1.0;"/><text fill="#000000" font-family="sans-serif" font-size="14" lengthAdjust="spacing" textLength="131.5303" x="427.5" y="729.6973">scope_id : uuid &#171;FK&#187;</text></g><!--class database--><g id="elem_database"><rect codeLine="70" fill="#F1F1F1" height="103.8633" id="database" rx="2.5" ry="2.5" style="stroke:#181818;stroke-width:0.5;" width="212.751" x="474" y="283"/><ellipse cx="547.3223" cy="299" fill="#ADD1B2" rx="11" ry="11" style="stroke:#181818;stroke-width:1.0;"/><path d="M546.1816,299.7969 L546.1816,302.2969 L550.5098,302.2969 L550.5098,301.375 Q550.5098,300.7656 550.7441,300.5 Q550.9941,300.2344 551.3691,300.2344 Q551.7441,300.2344 551.9785,300.5 Q552.2129,300.7656 552.2129,301.375 L552.2129,304 L544.2129,304 Q543.5879,304 543.3223,303.7656 Q543.0723,303.5313 543.0723,303.1406 Q543.0723,302.7656 543.3379,302.5313 Q543.6035,302.2969 544.2129,302.2969 L544.4785,302.2969 L544.4785,295.6406 L544.2129,295.6406 Q543.5879,295.6406 543.3223,295.4063 Q543.0723,295.1719 543.0723,294.7813 Q543.0723,294.4063 543.3223,294.1719 Q543.5879,293.9375 544.2129,293.9375 L551.8379,293.9375 L551.8379,296.5313 Q551.8379,297.1406 551.6035,297.4063 Q551.3848,297.6563 550.9941,297.6563 Q550.6191,297.6563 550.3848,297.4063 Q550.1504,297.1406 550.1504,296.5313 L550.1504,295.6406 L546.1816,295.6406 L546.1816,298.0938 L547.666,298.0938 Q547.666,297.4375 547.791,297.25 Q548.0566,296.8438 548.5254,296.8438 Q548.9004,296.8438 549.1348,297.1094 Q549.3691,297.3594 549.3691,297.9688 L549.3691,299.9375 Q549.3691,300.4844 549.2441,300.6719 Q548.9785,301.0625 548.5254,301.0625 Q548.0566,301.0625 547.791,300.6563 Q547.666,300.4688 547.666,299.7969 L546.1816,299.7969 Z " fill="#000000"/><text fill="#000000" font-family="sans-serif" font-size="14" lengthAdjust="spacing" textLength="57.6064" x="567.8223" y="304.7969">database</text><line style="stroke:#181818;stroke-width:0.5;" x1="475" x2="685.751" y1="315" y2="315"/><ellipse cx="485" cy="329.8105" fill="#000000" rx="3" ry="3" style="stroke:#000000;stroke-width:1.0;"/><text fill="#000000" font-family="sans-serif" font-size="14" lengthAdjust="spacing" textLength="131.5508" x="494" y="334.1074">id : uuid &#171;generated&#187;</text><line style="stroke:#181818;stroke-width:1.0;" x1="475" x2="685.751" y1="341.6211" y2="341.6211"/><ellipse cx="485" cy="356.4316" fill="#000000" rx="3" ry="3" style="stroke:#000000;stroke-width:1.0;"/><text fill="#000000" font-family="sans-serif" font-size="14" lengthAdjust="spacing" textLength="186.751" x="494" y="360.7285">name : character varying(255)</text><ellipse cx="485" cy="375.0527" fill="#000000" rx="3" ry="3" style="stroke:#000000;stroke-width:1.0;"/><text fill="#000000" font-family="sans-serif" font-size="14" lengthAdjust="spacing" textLength="120.6338" x="494" y="379.3496">host_id : uuid &#171;FK&#187;</text></g><!--class mapped_item--><g id="elem_mapped_item"><rect codeLine="77" fill="#F1F1F1" height="141.1055" id="mapped_item" rx="2.5" ry="2.5" style="stroke:#181818;stroke-width:0.5;" width="215.082" x="343" y="797"/><ellipse cx="403.8774" cy="813" fill="#ADD1B2" rx="11" ry="11" style="stroke:#181818;stroke-width:1.0;"/><path d="M402.7368,813.7969 L402.7368,816.2969 L407.0649,816.2969 L407.0649,815.375 Q407.0649,814.7656 407.2993,814.5 Q407.5493,814.2344 407.9243,814.2344 Q408.2993,814.2344 408.5337,814.5 Q408.7681,814.7656 408.7681,815.375 L408.7681,818 L400.7681,818 Q400.1431,818 399.8774,817.7656 Q399.6274,817.5313 399.6274,817.1406 Q399.6274,816.7656 399.8931,816.5313 Q400.1587,816.2969 400.7681,816.2969 L401.0337,816.2969 L401.0337,809.6406 L400.7681,809.6406 Q400.1431,809.6406 399.8774,809.4063 Q399.6274,809.1719 399.6274,808.7813 Q399.6274,808.4063 399.8774,808.1719 Q400.1431,807.9375 400.7681,807.9375 L408.3931,807.9375 L408.3931,810.5313 Q408.3931,811.1406 408.1587,811.4063 Q407.9399,811.6563 407.5493,811.6563 Q407.1743,811.6563 406.9399,811.4063 Q406.7056,811.1406 406.7056,810.5313 L406.7056,809.6406 L402.7368,809.6406 L402.7368,812.0938 L404.2212,812.0938 Q404.2212,811.4375 404.3462,811.25 Q404.6118,810.8438 405.0806,810.8438 Q405.4556,810.8438 405.6899,811.1094 Q405.9243,811.3594 405.9243,811.9688 L405.9243,813.9375 Q405.9243,814.4844 405.7993,814.6719 Q405.5337,815.0625 405.0806,815.0625 Q404.6118,815.0625 404.3462,814.6563 Q404.2212,814.4688 404.2212,813.7969 L402.7368,813.7969 Z " fill="#000000"/><text fill="#000000" font-family="sans-serif" font-size="14" lengthAdjust="spacing" textLength="84.8271" x="424.3774" y="818.7969">mapped_item</text><line style="stroke:#181818;stroke-width:0.5;" x1="344" x2="557.082" y1="829" y2="829"/><ellipse cx="354" cy="843.8105" fill="#000000" rx="3" ry="3" style="stroke:#000000;stroke-width:1.0;"/><text fill="#000000" font-family="sans-serif" font-size="14" lengthAdjust="spacing" textLength="131.5508" x="363" y="848.1074">id : uuid &#171;generated&#187;</text><line style="stroke:#181818;stroke-width:1.0;" x1="344" x2="557.082" y1="855.6211" y2="855.6211"/><text fill="#000000" font-family="sans-serif" font-size="14" lengthAdjust="spacing" textLength="107.3926" x="363" y="874.7285">properties : jsonb</text><ellipse cx="354" cy="889.0527" fill="#000000" rx="3" ry="3" style="stroke:#000000;stroke-width:1.0;"/><text fill="#000000" font-family="sans-serif" font-size="14" lengthAdjust="spacing" textLength="189.082" x="363" y="893.3496">status : character varying(255)</text><ellipse cx="354" cy="907.6738" fill="#000000" rx="3" ry="3" style="stroke:#000000;stroke-width:1.0;"/><text fill="#000000" font-family="sans-serif" font-size="14" lengthAdjust="spacing" textLength="147.875" x="363" y="911.9707">mapping_id : uuid &#171;FK&#187;</text><ellipse cx="354" cy="926.2949" fill="#000000" rx="3" ry="3" style="stroke:#000000;stroke-width:1.0;"/><text fill="#000000" font-family="sans-serif" font-size="14" lengthAdjust="spacing" textLength="120.6201" x="363" y="930.5918">item_id : uuid &#171;FK&#187;</text></g><!--link project to scope--><g id="link_project_scope"><path codeLine="86" d="M277.5,175.18 C277.5,194.14 277.5,198.67 277.5,218.65 " fill="none" id="project-scope" style="stroke:#181818;stroke-width:1.0;stroke-dasharray:7.0,7.0;"/><line style="stroke:#181818;stroke-width:1.0;" x1="273.5" x2="281.5" y1="171.18" y2="171.18"/><line style="stroke:#181818;stroke-width:1.0;" x1="273.5" x2="281.5" y1="174.18" y2="174.18"/><line style="stroke:#181818;stroke-width:1.0;" x1="277.5" x2="277.5" y1="175.18" y2="167.18"/><line style="stroke:#181818;stroke-width:1.0;" x1="277.5" x2="283.5" y1="218.65" y2="226.65"/><line style="stroke:#181818;stroke-width:1.0;" x1="277.5" x2="271.5" y1="218.65" y2="226.65"/><line style="stroke:#181818;stroke-width:1.0;" x1="277.5" x2="277.5" y1="218.65" y2="226.65"/><line style="stroke:#181818;stroke-width:1.0;" x1="281.5" x2="273.5" y1="216.65" y2="216.65"/></g><!--link scope to item--><g id="link_scope_item"><path codeLine="87" d="M293.5,451.15 C293.5,490.36 293.5,517.26 293.5,550.99 " fill="none" id="scope-item" style="stroke:#181818;stroke-width:1.0;stroke-dasharray:7.0,7.0;"/><line style="stroke:#181818;stroke-width:1.0;" x1="289.5" x2="297.5" y1="447.15" y2="447.15"/><line style="stroke:#181818;stroke-width:1.0;" x1="289.5" x2="297.5" y1="450.15" y2="450.15"/><line style="stroke:#181818;stroke-width:1.0;" x1="293.5" x2="293.5" y1="451.15" y2="443.15"/><line style="stroke:#181818;stroke-width:1.0;" x1="293.5" x2="299.5" y1="550.99" y2="558.99"/><line style="stroke:#181818;stroke-width:1.0;" x1="293.5" x2="287.5" y1="550.99" y2="558.99"/><line style="stroke:#181818;stroke-width:1.0;" x1="293.5" x2="293.5" y1="550.99" y2="558.99"/><line style="stroke:#181818;stroke-width:1.0;" x1="297.5" x2="289.5" y1="548.99" y2="548.99"/></g><!--link scope to checkpoint--><g id="link_scope_checkpoint"><path codeLine="89" d="M150,451.15 C150,490.36 150,517.26 150,550.99 " fill="none" id="scope-checkpoint" style="stroke:#181818;stroke-width:1.0;stroke-dasharray:7.0,7.0;"/><line style="stroke:#181818;stroke-width:1.0;" x1="146" x2="154" y1="447.15" y2="447.15"/><line style="stroke:#181818;stroke-width:1.0;" x1="146" x2="154" y1="450.15" y2="450.15"/><line style="stroke:#181818;stroke-width:1.0;" x1="150" x2="150" y1="451.15" y2="443.15"/><line style="stroke:#181818;stroke-width:1.0;" x1="154" x2="146" y1="554.99" y2="554.99"/><line style="stroke:#181818;stroke-width:1.0;" x1="154" x2="146" y1="551.99" y2="551.99"/><line style="stroke:#181818;stroke-width:1.0;" x1="150" x2="150" y1="550.99" y2="558.99"/></g><!--link checkpoint to checkpoint_batch--><g id="link_checkpoint_checkpoint_batch"><path codeLine="90" d="M100.5,689.18 C100.5,730.41 100.5,768.21 100.5,807.39 " fill="none" id="checkpoint-checkpoint_batch" style="stroke:#181818;stroke-width:1.0;stroke-dasharray:7.0,7.0;"/><line style="stroke:#181818;stroke-width:1.0;" x1="96.5" x2="104.5" y1="685.18" y2="685.18"/><line style="stroke:#181818;stroke-width:1.0;" x1="96.5" x2="104.5" y1="688.18" y2="688.18"/><line style="stroke:#181818;stroke-width:1.0;" x1="100.5" x2="100.5" y1="689.18" y2="681.18"/><line style="stroke:#181818;stroke-width:1.0;" x1="100.5" x2="106.5" y1="807.39" y2="815.39"/><line style="stroke:#181818;stroke-width:1.0;" x1="100.5" x2="94.5" y1="807.39" y2="815.39"/><line style="stroke:#181818;stroke-width:1.0;" x1="100.5" x2="100.5" y1="807.39" y2="815.39"/><line style="stroke:#181818;stroke-width:1.0;" x1="104.5" x2="96.5" y1="805.39" y2="805.39"/></g><!--link database to mapping--><g id="link_database_mapping"><path codeLine="92" d="M580.5,395.27 C580.5,427.65 580.5,454.59 580.5,494.77 " fill="none" id="database-mapping" style="stroke:#181818;stroke-width:1.0;stroke-dasharray:7.0,7.0;"/><line style="stroke:#181818;stroke-width:1.0;" x1="576.5" x2="584.5" y1="391.27" y2="391.27"/><line style="stroke:#181818;stroke-width:1.0;" x1="576.5" x2="584.5" y1="394.27" y2="394.27"/><line style="stroke:#181818;stroke-width:1.0;" x1="580.5" x2="580.5" y1="395.27" y2="387.27"/><line style="stroke:#181818;stroke-width:1.0;" x1="580.5" x2="586.5" y1="494.77" y2="502.77"/><line style="stroke:#181818;stroke-width:1.0;" x1="580.5" x2="574.5" y1="494.77" y2="502.77"/><line style="stroke:#181818;stroke-width:1.0;" x1="580.5" x2="580.5" y1="494.77" y2="502.77"/><line style="stroke:#181818;stroke-width:1.0;" x1="584.5" x2="576.5" y1="492.77" y2="492.77"/></g><!--link host to database--><g id="link_host_database"><path codeLine="93" d="M583,147.29 C583,189.5 583,232.59 583,274.78 " fill="none" id="host-database" style="stroke:#181818;stroke-width:1.0;stroke-dasharray:7.0,7.0;"/><line style="stroke:#181818;stroke-width:1.0;" x1="579" x2="587" y1="143.29" y2="143.29"/><line style="stroke:#181818;stroke-width:1.0;" x1="579" x2="587" y1="146.29" y2="146.29"/><line style="stroke:#181818;stroke-width:1.0;" x1="583" x2="583" y1="147.29" y2="139.29"/><line style="stroke:#181818;stroke-width:1.0;" x1="583" x2="589" y1="274.78" y2="282.78"/><line style="stroke:#181818;stroke-width:1.0;" x1="583" x2="577" y1="274.78" y2="282.78"/><line style="stroke:#181818;stroke-width:1.0;" x1="583" x2="583" y1="274.78" y2="282.78"/><line style="stroke:#181818;stroke-width:1.0;" x1="587" x2="579" y1="272.78" y2="272.78"/></g><!--link scope to mapping--><g id="link_scope_mapping"><path codeLine="94" d="M421,451.15 C421,470.68 421,475.12 421,494.89 " fill="none" id="scope-mapping" style="stroke:#181818;stroke-width:1.0;stroke-dasharray:7.0,7.0;"/><line style="stroke:#181818;stroke-width:1.0;" x1="417" x2="425" y1="447.15" y2="447.15"/><line style="stroke:#181818;stroke-width:1.0;" x1="417" x2="425" y1="450.15" y2="450.15"/><line style="stroke:#181818;stroke-width:1.0;" x1="421" x2="421" y1="451.15" y2="443.15"/><line style="stroke:#181818;stroke-width:1.0;" x1="421" x2="427" y1="494.89" y2="502.89"/><line style="stroke:#181818;stroke-width:1.0;" x1="421" x2="415" y1="494.89" y2="502.89"/><line style="stroke:#181818;stroke-width:1.0;" x1="421" x2="421" y1="494.89" y2="502.89"/><line style="stroke:#181818;stroke-width:1.0;" x1="425" x2="417" y1="492.89" y2="492.89"/></g><!--link item to mapped_item--><g id="link_item_mapped_item"><path codeLine="96" d="M357.75,689.18 C357.75,724.25 357.75,752.42 357.75,788.95 " fill="none" id="item-mapped_item" style="stroke:#181818;stroke-width:1.0;stroke-dasharray:7.0,7.0;"/><line style="stroke:#181818;stroke-width:1.0;" x1="353.75" x2="361.75" y1="685.18" y2="685.18"/><line style="stroke:#181818;stroke-width:1.0;" x1="353.75" x2="361.75" y1="688.18" y2="688.18"/><line style="stroke:#181818;stroke-width:1.0;" x1="357.75" x2="357.75" y1="689.18" y2="681.18"/><line style="stroke:#181818;stroke-width:1.0;" x1="357.75" x2="363.75" y1="788.95" y2="796.95"/><line style="stroke:#181818;stroke-width:1.0;" x1="357.75" x2="351.75" y1="788.95" y2="796.95"/><line style="stroke:#181818;stroke-width:1.0;" x1="357.75" x2="357.75" y1="788.95" y2="796.95"/><line style="stroke:#181818;stroke-width:1.0;" x1="361.75" x2="353.75" y1="786.95" y2="786.95"/></g><!--link mapping to mapped_item--><g id="link_mapping_mapped_item"><path codeLine="97" d="M482.75,745.23 C482.75,765.59 482.75,770.19 482.75,788.82 " fill="none" id="mapping-mapped_item" style="stroke:#181818;stroke-width:1.0;stroke-dasharray:7.0,7.0;"/><line style="stroke:#181818;stroke-width:1.0;" x1="478.75" x2="486.75" y1="741.23" y2="741.23"/><line style="stroke:#181818;stroke-width:1.0;" x1="478.75" x2="486.75" y1="744.23" y2="744.23"/><line style="stroke:#181818;stroke-width:1.0;" x1="482.75" x2="482.75" y1="745.23" y2="737.23"/><line style="stroke:#181818;stroke-width:1.0;" x1="482.75" x2="488.75" y1="788.82" y2="796.82"/><line style="stroke:#181818;stroke-width:1.0;" x1="482.75" x2="476.75" y1="788.82" y2="796.82"/><line style="stroke:#181818;stroke-width:1.0;" x1="482.75" x2="482.75" y1="788.82" y2="796.82"/><line style="stroke:#181818;stroke-width:1.0;" x1="486.75" x2="478.75" y1="786.82" y2="786.82"/></g><!--SRC=[jLNHJkim37tFL-GHaE3XIjm7X7X4I4Zt5weqCQjPcrI92mns_nqdIratkh6YRI-Jx6Fx-DXEmnnjgxngP8qMQD62T9ug9mHOGbh8rhjdq2G_XEJVXKGZRsJNyT_jxGmiU4LWxkwIz_8oWwngW66wuioQmCiNvHTePsT_hg_FCyP03HHHfNCrA9lDsaFCM9IBdnBqIADI6i860gccFVjxBb-HU-We6UMxiv1ZQXMeQ9p19pmuyl-N5a4xrcUI4dCuIHzFQ35KOBx91szSnQhwcsDKxWgK0H_O-XoSBLSsD0RimuZdeb-6OjZw_IFtlDO82Pff4iN5-zSr9Ql3x726bjRbMl24iCqZ3M8V2rs1dhUEKqtZKYhILH7mFIh5qJ03drtaIDL50YG-6qmd45gb-0qjj0RUjYiF4kyfNxbmWXFkVBqRiYxUgBPby_7h7_LoUDaqX1297dGx-J79OV75IdFT6a_V- -R-Cc5LgZ2oCGUkKv_W-9h6JTbNEJR4pKuzyzsdJ8gwy1EhBECklIARKTBzrskvlBfQVgnq5QjdF9jYg1YQbeEJ4eDt9EEt3rc8hrbaHEOgqirbMu_PhDqZHL9pOCm2YtvxHboV]--></g></svg>